  0
SECTION
  2
HEADER
  9
$ACADVER
  1
AC1032
  9
$ACADMAINTVER
 90
4
  9
$DWGCODEPAGE
  3
ANSI_1252
  9
$LASTSAVEDBY
  1
ezdxf
  9
$REQUIREDVERSIONS
160
0
  9
$INSBASE
 10
0.0
 20
0.0
 30
0.0
  9
$EXTMIN
 10
1e+20
 20
1e+20
 30
1e+20
  9
$EXTMAX
 10
-1e+20
 20
-1e+20
 30
-1e+20
  9
$LIMMIN
 10
0.0
 20
0.0
  9
$LIMMAX
 10
420.0
 20
297.0
  9
$ORTHOMODE
 70
0
  9
$REGENMODE
 70
1
  9
$FILLMODE
 70
1
  9
$QTEXTMODE
 70
0
  9
$MIRRTEXT
 70
1
  9
$LTSCALE
 40
1.0
  9
$ATTMODE
 70
1
  9
$TEXTSIZE
 40
2.5
  9
$TRACEWID
 40
1.0
  9
$TEXTSTYLE
  7
Standard
  9
$CLAYER
  8
0
  9
$CELTYPE
  6
ByLayer
  9
$CECOLOR
 62
256
  9
$CELTSCALE
 40
1.0
  9
$DISPSILH
 70
0
  9
$DIMSCALE
 40
1.0
  9
$DIMASZ
 40
2.5
  9
$DIMEXO
 40
0.625
  9
$DIMDLI
 40
3.75
  9
$DIMRND
 40
0.0
  9
$DIMDLE
 40
0.0
  9
$DIMEXE
 40
1.25
  9
$DIMTP
 40
0.0
  9
$DIMTM
 40
0.0
  9
$DIMTXT
 40
2.5
  9
$DIMCEN
 40
2.5
  9
$DIMTSZ
 40
0.0
  9
$DIMTOL
 70
0
  9
$DIMLIM
 70
0
  9
$DIMTIH
 70
0
  9
$DIMTOH
 70
0
  9
$DIMSE1
 70
0
  9
$DIMSE2
 70
0
  9
$DIMTAD
 70
1
  9
$DIMZIN
 70
8
  9
$DIMBLK
  1

  9
$DIMASO
 70
1
  9
$DIMSHO
 70
1
  9
$DIMPOST
  1

  9
$DIMAPOST
  1

  9
$DIMALT
 70
0
  9
$DIMALTD
 70
3
  9
$DIMALTF
 40
0.03937007874
  9
$DIMLFAC
 40
1.0
  9
$DIMTOFL
 70
1
  9
$DIMTVP
 40
0.0
  9
$DIMTIX
 70
0
  9
$DIMSOXD
 70
0
  9
$DIMSAH
 70
0
  9
$DIMBLK1
  1

  9
$DIMBLK2
  1

  9
$DIMSTYLE
  2
ISO-25
  9
$DIMCLRD
 70
0
  9
$DIMCLRE
 70
0
  9
$DIMCLRT
 70
0
  9
$DIMTFAC
 40
1.0
  9
$DIMGAP
 40
0.625
  9
$DIMJUST
 70
0
  9
$DIMSD1
 70
0
  9
$DIMSD2
 70
0
  9
$DIMTOLJ
 70
0
  9
$DIMTZIN
 70
8
  9
$DIMALTZ
 70
0
  9
$DIMALTTZ
 70
0
  9
$DIMUPT
 70
0
  9
$DIMDEC
 70
2
  9
$DIMTDEC
 70
2
  9
$DIMALTU
 70
2
  9
$DIMALTTD
 70
3
  9
$DIMTXSTY
  7
Standard
  9
$DIMAUNIT
 70
0
  9
$DIMADEC
 70
0
  9
$DIMALTRND
 40
0.0
  9
$DIMAZIN
 70
0
  9
$DIMDSEP
 70
44
  9
$DIMATFIT
 70
3
  9
$DIMFRAC
 70
0
  9
$DIMLDRBLK
  1

  9
$DIMLUNIT
 70
2
  9
$DIMLWD
 70
-2
  9
$DIMLWE
 70
-2
  9
$DIMTMOVE
 70
0
  9
$DIMFXL
 40
1.0
  9
$DIMFXLON
 70
0
  9
$DIMJOGANG
 40
0.785398163397
  9
$DIMTFILL
 70
0
  9
$DIMTFILLCLR
 70
0
  9
$DIMARCSYM
 70
0
  9
$DIMLTYPE
  6

  9
$DIMLTEX1
  6

  9
$DIMLTEX2
  6

  9
$DIMTXTDIRECTION
 70
0
  9
$LUNITS
 70
2
  9
$LUPREC
 70
4
  9
$SKETCHINC
 40
1.0
  9
$FILLETRAD
 40
10.0
  9
$AUNITS
 70
0
  9
$AUPREC
 70
2
  9
$MENU
  1
.
  9
$ELEVATION
 40
0.0
  9
$PELEVATION
 40
0.0
  9
$THICKNESS
 40
0.0
  9
$LIMCHECK
 70
0
  9
$CHAMFERA
 40
0.0
  9
$CHAMFERB
 40
0.0
  9
$CHAMFERC
 40
0.0
  9
$CHAMFERD
 40
0.0
  9
$SKPOLY
 70
0
  9
$TDCREATE
 40
2461234.140972222
  9
$TDUCREATE
 40
2458532.153996898
  9
$TDUPDATE
 40
2461234.140972222
  9
$TDUUPDATE
 40
2458532.1544311
  9
$TDINDWG
 40
0.0
  9
$TDUSRTIMER
 40
0.0
  9
$USRTIMER
 70
1
  9
$ANGBASE
 50
0.0
  9
$ANGDIR
 70
0
  9
$PDMODE
 70
0
  9
$PDSIZE
 40
0.0
  9
$PLINEWID
 40
0.0
  9
$SPLFRAME
 70
0
  9
$SPLINETYPE
 70
6
  9
$SPLINESEGS
 70
8
  9
$HANDSEED
  5
1DF
  9
$SURFTAB1
 70
6
  9
$SURFTAB2
 70
6
  9
$SURFTYPE
 70
6
  9
$SURFU
 70
6
  9
$SURFV
 70
6
  9
$UCSBASE
  2

  9
$UCSNAME
  2

  9
$UCSORG
 10
0.0
 20
0.0
 30
0.0
  9
$UCSXDIR
 10
1.0
 20
0.0
 30
0.0
  9
$UCSYDIR
 10
0.0
 20
1.0
 30
0.0
  9
$UCSORTHOREF
  2

  9
$UCSORTHOVIEW
 70
0
  9
$UCSORGTOP
 10
0.0
 20
0.0
 30
0.0
  9
$UCSORGBOTTOM
 10
0.0
 20
0.0
 30
0.0
  9
$UCSORGLEFT
 10
0.0
 20
0.0
 30
0.0
  9
$UCSORGRIGHT
 10
0.0
 20
0.0
 30
0.0
  9
$UCSORGFRONT
 10
0.0
 20
0.0
 30
0.0
  9
$UCSORGBACK
 10
0.0
 20
0.0
 30
0.0
  9
$PUCSBASE
  2

  9
$PUCSNAME
  2

  9
$PUCSORG
 10
0.0
 20
0.0
 30
0.0
  9
$PUCSXDIR
 10
1.0
 20
0.0
 30
0.0
  9
$PUCSYDIR
 10
0.0
 20
1.0
 30
0.0
  9
$PUCSORTHOREF
  2

  9
$PUCSORTHOVIEW
 70
0
  9
$PUCSORGTOP
 10
0.0
 20
0.0
 30
0.0
  9
$PUCSORGBOTTOM
 10
0.0
 20
0.0
 30
0.0
  9
$PUCSORGLEFT
 10
0.0
 20
0.0
 30
0.0
  9
$PUCSORGRIGHT
 10
0.0
 20
0.0
 30
0.0
  9
$PUCSORGFRONT
 10
0.0
 20
0.0
 30
0.0
  9
$PUCSORGBACK
 10
0.0
 20
0.0
 30
0.0
  9
$USERI1
 70
0
  9
$USERI2
 70
0
  9
$USERI3
 70
0
  9
$USERI4
 70
0
  9
$USERI5
 70
0
  9
$USERR1
 40
0.0
  9
$USERR2
 40
0.0
  9
$USERR3
 40
0.0
  9
$USERR4
 40
0.0
  9
$USERR5
 40
0.0
  9
$WORLDVIEW
 70
1
  9
$SHADEDGE
 70
3
  9
$SHADEDIF
 70
70
  9
$TILEMODE
 70
1
  9
$MAXACTVP
 70
64
  9
$PINSBASE
 10
0.0
 20
0.0
 30
0.0
  9
$PLIMCHECK
 70
0
  9
$PEXTMIN
 10
1e+20
 20
1e+20
 30
1e+20
  9
$PEXTMAX
 10
-1e+20
 20
-1e+20
 30
-1e+20
  9
$PLIMMIN
 10
0.0
 20
0.0
  9
$PLIMMAX
 10
420.0
 20
297.0
  9
$UNITMODE
 70
0
  9
$VISRETAIN
 70
1
  9
$PLINEGEN
 70
0
  9
$PSLTSCALE
 70
1
  9
$TREEDEPTH
 70
3020
  9
$CMLSTYLE
  2
Standard
  9
$CMLJUST
 70
0
  9
$CMLSCALE
 40
20.0
  9
$PROXYGRAPHICS
 70
1
  9
$MEASUREMENT
 70
1
  9
$CELWEIGHT
370
-1
  9
$ENDCAPS
280
0
  9
$JOINSTYLE
280
0
  9
$LWDISPLAY
290
0
  9
$INSUNITS
 70
6
  9
$HYPERLINKBASE
  1

  9
$STYLESHEET
  1

  9
$XEDIT
290
1
  9
$CEPSNTYPE
380
0
  9
$PSTYLEMODE
290
1
  9
$FINGERPRINTGUID
  2
{6E51A2B5-5DD3-4395-9FF1-A7D823F63E0A}
  9
$VERSIONGUID
  2
{545E3485-D300-48C4-9C94-5C1A64ED8BD2}
  9
$EXTNAMES
290
1
  9
$PSVPSCALE
 40
0.0
  9
$OLESTARTUP
290
0
  9
$SORTENTS
280
127
  9
$INDEXCTL
280
0
  9
$HIDETEXT
280
1
  9
$XCLIPFRAME
280
1
  9
$HALOGAP
280
0
  9
$OBSCOLOR
 70
257
  9
$OBSLTYPE
280
0
  9
$INTERSECTIONDISPLAY
280
0
  9
$INTERSECTIONCOLOR
 70
257
  9
$DIMASSOC
280
2
  9
$PROJECTNAME
  1

  9
$CAMERADISPLAY
290
0
  9
$LENSLENGTH
 40
50.0
  9
$CAMERAHEIGHT
 40
0.0
  9
$STEPSPERSEC
 40
24.0
  9
$STEPSIZE
 40
100.0
  9
$3DDWFPREC
 40
2.0
  9
$PSOLWIDTH
 40
0.005
  9
$PSOLHEIGHT
 40
0.08
  9
$LOFTANG1
 40
1.570796326795
  9
$LOFTANG2
 40
1.570796326795
  9
$LOFTMAG1
 40
0.0
  9
$LOFTMAG2
 40
0.0
  9
$LOFTPARAM
 70
7
  9
$LOFTNORMALS
280
1
  9
$LATITUDE
 40
37.795
  9
$LONGITUDE
 40
-122.394
  9
$NORTHDIRECTION
 40
0.0
  9
$TIMEZONE
 70
-8000
  9
$LIGHTGLYPHDISPLAY
280
1
  9
$TILEMODELIGHTSYNCH
280
1
  9
$CMATERIAL
347
20
  9
$SOLIDHIST
280
0
  9
$SHOWHIST
280
1
  9
$DWFFRAME
280
2
  9
$DGNFRAME
280
2
  9
$REALWORLDSCALE
290
1
  9
$INTERFERECOLOR
 62
256
  9
$CSHADOW
280
0
  9
$SHADOWPLANELOCATION
 40
0.0
  0
ENDSEC
  0
SECTION
  2
CLASSES
  0
CLASS
  1
ACDBDICTIONARYWDFLT
  2
AcDbDictionaryWithDefault
  3
ObjectDBX Classes
 90
0
 91
0
280
0
281
0
  0
CLASS
  1
SUN
  2
AcDbSun
  3
SCENEOE
 90
1153
 91
0
280
0
281
0
  0
CLASS
  1
VISUALSTYLE
  2
AcDbVisualStyle
  3
ObjectDBX Classes
 90
4095
 91
0
280
0
281
0
  0
CLASS
  1
MATERIAL
  2
AcDbMaterial
  3
ObjectDBX Classes
 90
1153
 91
0
280
0
281
0
  0
CLASS
  1
SCALE
  2
AcDbScale
  3
ObjectDBX Classes
 90
1153
 91
0
280
0
281
0
  0
CLASS
  1
TABLESTYLE
  2
AcDbTableStyle
  3
ObjectDBX Classes
 90
4095
 91
0
280
0
281
0
  0
CLASS
  1
MLEADERSTYLE
  2
AcDbMLeaderStyle
  3
ACDB_MLEADERSTYLE_CLASS
 90
4095
 91
0
280
0
281
0
  0
CLASS
  1
DICTIONARYVAR
  2
AcDbDictionaryVar
  3
ObjectDBX Classes
 90
0
 91
0
280
0
281
0
  0
CLASS
  1
CELLSTYLEMAP
  2
AcDbCellStyleMap
  3
ObjectDBX Classes
 90
1152
 91
0
280
0
281
0
  0
CLASS
  1
MENTALRAYRENDERSETTINGS
  2
AcDbMentalRayRenderSettings
  3
SCENEOE
 90
1024
 91
0
280
0
281
0
  0
CLASS
  1
ACDBDETAILVIEWSTYLE
  2
AcDbDetailViewStyle
  3
ObjectDBX Classes
 90
1025
 91
0
280
0
281
0
  0
CLASS
  1
ACDBSECTIONVIEWSTYLE
  2
AcDbSectionViewStyle
  3
ObjectDBX Classes
 90
1025
 91
0
280
0
281
0
  0
CLASS
  1
RASTERVARIABLES
  2
AcDbRasterVariables
  3
ISM
 90
0
 91
0
280
0
281
0
  0
CLASS
  1
LAYOUT
  2
AcDbLayout
  3
ObjectDBX Classes
 90
0
 91
0
280
0
281
0
  0
CLASS
  1
ACDBPLACEHOLDER
  2
AcDbPlaceHolder
  3
ObjectDBX Classes
 90
0
 91
0
280
0
281
0
  0
ENDSEC
  0
SECTION
  2
TABLES
  0
TABLE
  2
VPORT
  5
8
330
0
100
AcDbSymbolTable
 70
1
  0
VPORT
  5
23
330
8
100
AcDbSymbolTableRecord
100
AcDbViewportTableRecord
  2
*Active
 70
0
 10
0.0
 20
0.0
 11
1.0
 21
1.0
 12
0.0
 22
0.0
 13
0.0
 23
0.0
 14
0.5
 24
0.5
 15
0.5
 25
0.5
 16
0.0
 26
0.0
 36
1.0
 17
0.0
 27
0.0
 37
0.0
 40
1000.0
 41
1.34
 42
50.0
 43
0.0
 44
0.0
 50
0.0
 51
0.0
 71
0
 72
1000
 73
1
 74
3
 75
0
 76
0
 77
0
 78
0
281
0
 65
0
146
0.0
  0
ENDTAB
  0
TABLE
  2
LTYPE
  5
2
330
0
100
AcDbSymbolTable
 70
3
  0
LTYPE
  5
24
330
2
100
AcDbSymbolTableRecord
100
AcDbLinetypeTableRecord
  2
ByBlock
 70
0
  3

 72
65
 73
0
 40
0.0
  0
LTYPE
  5
25
330
2
100
AcDbSymbolTableRecord
100
AcDbLinetypeTableRecord
  2
ByLayer
 70
0
  3

 72
65
 73
0
 40
0.0
  0
LTYPE
  5
26
330
2
100
AcDbSymbolTableRecord
100
AcDbLinetypeTableRecord
  2
Continuous
 70
0
  3

 72
65
 73
0
 40
0.0
  0
ENDTAB
  0
TABLE
  2
LAYER
  5
1
330
0
100
AcDbSymbolTable
 70
15
  0
LAYER
  5
27
330
1
100
AcDbSymbolTableRecord
100
AcDbLayerTableRecord
  2
0
 70
0
 62
7
  6
Continuous
370
-3
390
13
347
21
  0
LAYER
  5
28
330
1
100
AcDbSymbolTableRecord
100
AcDbLayerTableRecord
  2
Defpoints
 70
0
 62
7
  6
Continuous
290
0
370
-3
390
13
347
21
  0
LAYER
  5
2F
330
1
100
AcDbSymbolTableRecord
100
AcDbLayerTableRecord
  2
A-WALL
 70
0
 62
1
  6
Continuous
370
-3
390
13
347
21
  0
LAYER
  5
30
330
1
100
AcDbSymbolTableRecord
100
AcDbLayerTableRecord
  2
A-ROOF
 70
0
 62
4
  6
Continuous
370
-3
390
13
347
21
  0
LAYER
  5
31
330
1
100
AcDbSymbolTableRecord
100
AcDbLayerTableRecord
  2
A-DOOR
 70
0
 62
3
  6
Continuous
370
-3
390
13
347
21
  0
LAYER
  5
32
330
1
100
AcDbSymbolTableRecord
100
AcDbLayerTableRecord
  2
A-WINDOW
 70
0
 62
5
  6
Continuous
370
-3
390
13
347
21
  0
LAYER
  5
33
330
1
100
AcDbSymbolTableRecord
100
AcDbLayerTableRecord
  2
A-WINDOW-FRAME
 70
0
 62
5
  6
Continuous
370
-3
390
13
347
21
  0
LAYER
  5
34
330
1
100
AcDbSymbolTableRecord
100
AcDbLayerTableRecord
  2
A-WINDOW-MUNTIN
 70
0
 62
141
  6
Continuous
370
-3
390
13
347
21
  0
LAYER
  5
35
330
1
100
AcDbSymbolTableRecord
100
AcDbLayerTableRecord
  2
A-WINDOW-MULLION
 70
0
 62
171
  6
Continuous
370
-3
390
13
347
21
  0
LAYER
  5
36
330
1
100
AcDbSymbolTableRecord
100
AcDbLayerTableRecord
  2
A-GRADE
 70
0
 62
2
  6
Continuous
370
-3
390
13
347
21
  0
LAYER
  5
37
330
1
100
AcDbSymbolTableRecord
100
AcDbLayerTableRecord
  2
A-TRIM
 70
0
 62
6
  6
Continuous
370
-3
390
13
347
21
  0
LAYER
  5
38
330
1
100
AcDbSymbolTableRecord
100
AcDbLayerTableRecord
  2
A-COLUMN
 70
0
 62
8
  6
Continuous
370
-3
390
13
347
21
  0
LAYER
  5
39
330
1
100
AcDbSymbolTableRecord
100
AcDbLayerTableRecord
  2
A-BEAM
 70
0
 62
8
  6
Continuous
370
-3
390
13
347
21
  0
LAYER
  5
3A
330
1
100
AcDbSymbolTableRecord
100
AcDbLayerTableRecord
  2
A-SLAB
 70
0
 62
8
  6
Continuous
370
-3
390
13
347
21
  0
LAYER
  5
3B
330
1
100
AcDbSymbolTableRecord
100
AcDbLayerTableRecord
  2
G-ANNO-TEXT
 70
0
 62
7
  6
Continuous
370
-3
390
13
347
21
  0
ENDTAB
  0
TABLE
  2
STYLE
  5
5
330
0
100
AcDbSymbolTable
 70
2
  0
STYLE
  5
29
330
5
100
AcDbSymbolTableRecord
100
AcDbTextStyleTableRecord
  2
Standard
 70
0
 40
0.0
 41
1.0
 50
0.0
 71
0
 42
2.5
  3
txt
  4

  0
STYLE
  5
3C
330
5
100
AcDbSymbolTableRecord
100
AcDbTextStyleTableRecord
  2
ELEVATION_TITLE
 70
0
 40
0.0
 41
1.0
 50
0.0
 71
0
 42
2.5
  3
Arial.ttf
  4

  0
ENDTAB
  0
TABLE
  2
VIEW
  5
7
330
0
100
AcDbSymbolTable
 70
0
  0
ENDTAB
  0
TABLE
  2
UCS
  5
6
330
0
100
AcDbSymbolTable
 70
0
  0
ENDTAB
  0
TABLE
  2
APPID
  5
3
330
0
100
AcDbSymbolTable
 70
3
  0
APPID
  5
2A
330
3
100
AcDbSymbolTableRecord
100
AcDbRegAppTableRecord
  2
ACAD
 70
0
  0
APPID
  5
1DC
330
3
100
AcDbSymbolTableRecord
100
AcDbRegAppTableRecord
  2
HATCHBACKGROUNDCOLOR
 70
0
  0
APPID
  5
1DD
330
3
100
AcDbSymbolTableRecord
100
AcDbRegAppTableRecord
  2
EZDXF
 70
0
  0
ENDTAB
  0
TABLE
  2
DIMSTYLE
  5
4
330
0
100
AcDbSymbolTable
 70
1
100
AcDbDimStyleTable
  0
DIMSTYLE
105
2B
330
4
100
AcDbSymbolTableRecord
100
AcDbDimStyleTableRecord
  2
Standard
 70
0
 40
1.0
 41
2.5
 42
0.625
 43
3.75
 44
1.25
 45
0.0
 46
0.0
 47
0.0
 48
0.0
 49
2.5
140
2.5
141
2.5
142
0.0
143
0.03937007874
144
1.0
145
0.0
146
1.0
147
0.625
148
0.0
 69
0
 70
0
 71
0
 72
0
 73
0
 74
0
 75
0
 76
0
 77
1
 78
8
 79
3
170
0
171
3
172
1
173
0
174
0
175
0
176
0
177
0
178
0
179
2
271
2
272
2
273
2
274
3
275
0
276
0
277
2
278
44
279
0
280
0
281
0
282
0
283
0
284
8
285
0
286
0
288
0
289
3
290
0
371
-2
372
-2
  0
ENDTAB
  0
TABLE
  2
BLOCK_RECORD
  5
9
330
0
100
AcDbSymbolTable
 70
16
  0
BLOCK_RECORD
  5
17
330
9
100
AcDbSymbolTableRecord
100
AcDbBlockTableRecord
  2
*Model_Space
340
1A
 70
0
280
1
281
0
  0
BLOCK_RECORD
  5
1B
330
9
100
AcDbSymbolTableRecord
100
AcDbBlockTableRecord
  2
*Paper_Space
340
1E
 70
0
280
1
281
0
  0
BLOCK_RECORD
  5
80
330
9
100
AcDbSymbolTableRecord
100
AcDbBlockTableRecord
  2
ELEV_extDoor_single_paneled_glass_2x3grid_elevation_36in+14inSL_51.5x96
340
0
 70
0
280
1
281
0
  0
BLOCK_RECORD
  5
95
330
9
100
AcDbSymbolTableRecord
100
AcDbBlockTableRecord
  2
window_Casement_2x3grid_elevation_24x72
340
0
 70
0
280
1
281
0
  0
BLOCK_RECORD
  5
A0
330
9
100
AcDbSymbolTableRecord
100
AcDbBlockTableRecord
  2
ELEV_window_mulledCasement_2x3grid_elevation_24x72x3_80x72
340
0
 70
0
280
1
281
0
  0
BLOCK_RECORD
  5
B0
330
9
100
AcDbSymbolTableRecord
100
AcDbBlockTableRecord
  2
ELEV_garage_door_elevation_96x96
340
0
 70
0
280
1
281
0
  0
BLOCK_RECORD
  5
F2
330
9
100
AcDbSymbolTableRecord
100
AcDbBlockTableRecord
  2
window_Casement_2x3grid_elevation_32x72
340
0
 70
0
280
1
281
0
  0
BLOCK_RECORD
  5
FD
330
9
100
AcDbSymbolTableRecord
100
AcDbBlockTableRecord
  2
ELEV_window_mulledCasement_2x3grid_elevation_32x72x2_68x72
340
0
 70
0
280
1
281
0
  0
BLOCK_RECORD
  5
108
330
9
100
AcDbSymbolTableRecord
100
AcDbBlockTableRecord
  2
window_Casement_2x3grid_elevation_30x72
340
0
 70
0
280
1
281
0
  0
BLOCK_RECORD
  5
113
330
9
100
AcDbSymbolTableRecord
100
AcDbBlockTableRecord
  2
ELEV_window_mulledCasement_2x3grid_elevation_30x72x4_132x72
340
0
 70
0
280
1
281
0
  0
BLOCK_RECORD
  5
124
330
9
100
AcDbSymbolTableRecord
100
AcDbBlockTableRecord
  2
ELEV_extDoor_4-panel_sliding_glass_168x96
340
0
 70
0
280
1
281
0
  0
BLOCK_RECORD
  5
180
330
9
100
AcDbSymbolTableRecord
100
AcDbBlockTableRecord
  2
ELEV_window_Casement_2x3grid_elevation_32x72
340
0
 70
0
280
1
281
0
  0
BLOCK_RECORD
  5
1A9
330
9
100
AcDbSymbolTableRecord
100
AcDbBlockTableRecord
  2
ELEV_window_mulledCasement_2x3grid_elevation_24x72x2_52x72
340
0
 70
0
280
1
281
0
  0
BLOCK_RECORD
  5
1B4
330
9
100
AcDbSymbolTableRecord
100
AcDbBlockTableRecord
  2
ELEV_window_Casement_2x3grid_elevation_36x72
340
0
 70
0
280
1
281
0
  0
BLOCK_RECORD
  5
1C1
330
9
100
AcDbSymbolTableRecord
100
AcDbBlockTableRecord
  2
ELEV_window_Casement_2x3grid_elevation_30x72
340
0
 70
0
280
1
281
0
  0
BLOCK_RECORD
  5
1CE
330
9
100
AcDbSymbolTableRecord
100
AcDbBlockTableRecord
  2
ELEV_window_Casement_2x3grid_elevation_28x72
340
0
 70
0
280
1
281
0
  0
ENDTAB
  0
ENDSEC
  0
SECTION
  2
BLOCKS
  0
BLOCK
  5
18
330
17
100
AcDbEntity
  8
0
100
AcDbBlockBegin
  2
*Model_Space
 70
0
 10
0.0
 20
0.0
 30
0.0
  3
*Model_Space
  1

  0
ENDBLK
  5
19
330
17
100
AcDbEntity
  8
0
100
AcDbBlockEnd
  0
BLOCK
  5
1C
330
1B
100
AcDbEntity
  8
0
100
AcDbBlockBegin
  2
*Paper_Space
 70
0
 10
0.0
 20
0.0
 30
0.0
  3
*Paper_Space
  1

  0
ENDBLK
  5
1D
330
1B
100
AcDbEntity
  8
0
100
AcDbBlockEnd
  0
BLOCK
  5
81
330
80
100
AcDbEntity
  8
0
100
AcDbBlockBegin
  2
ELEV_extDoor_single_paneled_glass_2x3grid_elevation_36in+14inSL_51.5x96
 70
0
 10
0.0
 20
0.0
 30
0.0
  3
ELEV_extDoor_single_paneled_glass_2x3grid_elevation_36in+14inSL_51.5x96
  1

  0
LWPOLYLINE
  5
83
330
80
100
AcDbEntity
  8
A-DOOR
100
AcDbPolyline
 90
4
 70
1
 10
11.75
 20
0.0
 10
11.75
 20
95.99999999999997
 10
25.75000000000023
 20
95.99999999999997
 10
25.75
 20
0.0
  0
LWPOLYLINE
  5
84
330
80
100
AcDbEntity
  8
A-DOOR
100
AcDbPolyline
 90
4
 70
1
 10
-25.75
 20
0.0
 10
-25.74999999999977
 20
95.99999999999997
 10
10.25
 20
95.99999999999997
 10
10.25
 20
0.0
  0
LWPOLYLINE
  5
85
330
80
100
AcDbEntity
  8
A-DOOR
100
AcDbPolyline
 90
4
 70
1
 10
22.75
 20
32.0
 10
22.75
 20
89.99999999999997
 10
14.75
 20
89.99999999999997
 10
14.75
 20
32.0
  0
LWPOLYLINE
  5
86
330
80
100
AcDbEntity
  8
A-DOOR
100
AcDbPolyline
 90
4
 70
1
 10
4.25
 20
32.0
 10
4.25
 20
89.99999999999997
 10
-19.75
 20
89.99999999999997
 10
-19.75
 20
32.0
  0
LWPOLYLINE
  5
87
330
80
100
AcDbEntity
  8
A-DOOR
100
AcDbPolyline
 90
4
 70
1
 10
22.75
 20
9.5
 10
22.75
 20
26.0
 10
14.75
 20
26.0
 10
14.75
 20
9.5
  0
LWPOLYLINE
  5
88
330
80
100
AcDbEntity
  8
A-DOOR
100
AcDbPolyline
 90
4
 70
1
 10
4.25
 20
9.5
 10
4.25
 20
26.0
 10
-19.75
 20
26.0
 10
-19.75
 20
9.5
  0
LWPOLYLINE
  5
89
330
80
100
AcDbEntity
  8
A-DOOR
100
AcDbPolyline
 90
4
 70
1
 10
-7.375
 20
51.70833206176755
 10
-7.375
 20
50.95833206176755
 10
4.25
 20
50.95833206176755
 10
4.25
 20
51.70833206176755
  0
LWPOLYLINE
  5
8A
330
80
100
AcDbEntity
  8
A-DOOR
100
AcDbPolyline
 90
4
 70
1
 10
-7.375
 20
71.04166412353513
 10
-7.375
 20
70.29166412353513
 10
4.25
 20
70.29166412353513
 10
4.25
 20
71.04166412353513
  0
LWPOLYLINE
  5
8B
330
80
100
AcDbEntity
  8
A-DOOR
100
AcDbPolyline
 90
4
 70
1
 10
-8.125
 20
51.70833206176755
 10
-8.125
 20
50.95833206176755
 10
-19.75
 20
50.95833206176755
 10
-19.75
 20
51.70833206176755
  0
LWPOLYLINE
  5
8C
330
80
100
AcDbEntity
  8
A-DOOR
100
AcDbPolyline
 90
4
 70
1
 10
-8.125
 20
71.04166412353513
 10
-8.125
 20
70.29166412353513
 10
-19.75
 20
70.29166412353513
 10
-19.75
 20
71.04166412353513
  0
LWPOLYLINE
  5
8D
330
80
100
AcDbEntity
  8
A-DOOR
100
AcDbPolyline
 90
4
 70
1
 10
-8.125
 20
31.99999999999997
 10
-8.125
 20
89.99999999999997
 10
-7.375
 20
89.99999999999997
 10
-7.375
 20
31.99999999999997
  0
LWPOLYLINE
  5
8E
330
80
100
AcDbEntity
  8
A-DOOR
100
AcDbPolyline
 90
4
 70
1
 10
22.75
 20
51.70833206176758
 10
22.75
 20
50.95833206176758
 10
14.75
 20
50.95833206176758
 10
14.75
 20
51.70833206176758
  0
LWPOLYLINE
  5
8F
330
80
100
AcDbEntity
  8
A-DOOR
100
AcDbPolyline
 90
4
 70
1
 10
22.75
 20
71.04166412353516
 10
22.75
 20
70.29166412353516
 10
14.75
 20
70.29166412353516
 10
14.75
 20
71.04166412353516
  0
LWPOLYLINE
  5
90
330
80
100
AcDbEntity
  8
A-DOOR
100
AcDbPolyline
 90
8
 70
1
 10
-26.0
 20
0.0
 10
-30.0
 20
0.0
 10
-30.0
 20
100.25
 10
30.0
 20
100.25
 10
30.0
 20
0.0
 10
26.0
 20
0.0
 10
26.0
 20
96.24999999999997
 10
-26.0
 20
96.24999999999997
  0
LWPOLYLINE
  5
91
330
80
100
AcDbEntity
  8
A-DOOR
100
AcDbPolyline
 90
4
 70
1
 10
10.25
 20
95.99999999999997
 10
11.75
 20
95.99999999999997
 10
11.75
 20
0.0
 10
10.25
 20
0.0
  0
LWPOLYLINE
  5
92
330
80
100
AcDbEntity
  8
A-DOOR
100
AcDbPolyline
 90
6
 70
0
 10
25.99990977689754
 20
0.0
 10
25.75
 20
0.0
 10
25.75
 20
95.99999999999997
 10
-25.75
 20
95.99999999999997
 10
-25.75
 20
0.0
 10
-26.0
 20
0.0
  0
ENDBLK
  5
82
330
80
100
AcDbEntity
  8
0
100
AcDbBlockEnd
  0
BLOCK
  5
96
330
95
100
AcDbEntity
  8
0
100
AcDbBlockBegin
  2
window_Casement_2x3grid_elevation_24x72
 70
0
 10
0.0
 20
0.0
 30
0.0
  3
window_Casement_2x3grid_elevation_24x72
  1

  0
LWPOLYLINE
  5
98
330
95
100
AcDbEntity
  8
A-WINDOW-FRAME
100
AcDbPolyline
 90
4
 70
1
 10
-12.0
 20
0.0
 10
12.0
 20
0.0
 10
12.0
 20
72.0
 10
-12.0
 20
72.0
  0
LWPOLYLINE
  5
99
330
95
100
AcDbEntity
  8
A-WINDOW-FRAME
100
AcDbPolyline
 90
4
 70
1
 10
-11.25
 20
0.7500000000000107
 10
11.25
 20
0.7500000000000012
 10
11.25
 20
71.25
 10
-11.25
 20
71.25
  0
LWPOLYLINE
  5
9A
330
95
100
AcDbEntity
  8
A-WINDOW-FRAME
100
AcDbPolyline
 90
4
 70
1
 10
-9.25
 20
2.750000000000023
 10
9.25
 20
2.75
 10
9.25
 20
69.25
 10
-9.25
 20
69.25
  0
LWPOLYLINE
  5
9B
330
95
100
AcDbEntity
  8
A-WINDOW-MUNTIN
100
AcDbPolyline
 90
4
 70
1
 10
-0.375
 20
2.750000000000023
 10
0.375
 20
2.750000000000023
 10
0.375
 20
69.25
 10
-0.375
 20
69.25
  0
LWPOLYLINE
  5
9C
330
95
100
AcDbEntity
  8
A-WINDOW-MUNTIN
100
AcDbPolyline
 90
4
 70
1
 10
-9.25
 20
46.70833333333334
 10
-0.375
 20
46.70833333333334
 10
-0.375
 20
47.45833333333334
 10
-9.25
 20
47.45833333333334
  0
LWPOLYLINE
  5
9D
330
95
100
AcDbEntity
  8
A-WINDOW-MUNTIN
100
AcDbPolyline
 90
4
 70
1
 10
0.375
 20
46.70833333333334
 10
9.25
 20
46.70833333333334
 10
9.25
 20
47.45833333333334
 10
0.375
 20
47.45833333333334
  0
LWPOLYLINE
  5
9E
330
95
100
AcDbEntity
  8
A-WINDOW-MUNTIN
100
AcDbPolyline
 90
4
 70
1
 10
-9.25
 20
24.54166666666668
 10
-0.375
 20
24.54166666666668
 10
-0.375
 20
25.29166666666668
 10
-9.25
 20
25.29166666666668
  0
LWPOLYLINE
  5
9F
330
95
100
AcDbEntity
  8
A-WINDOW-MUNTIN
100
AcDbPolyline
 90
4
 70
1
 10
0.375
 20
24.54166666666668
 10
9.25
 20
24.54166666666668
 10
9.25
 20
25.29166666666668
 10
0.375
 20
25.29166666666668
  0
ENDBLK
  5
97
330
95
100
AcDbEntity
  8
0
100
AcDbBlockEnd
  0
BLOCK
  5
A1
330
A0
100
AcDbEntity
  8
0
100
AcDbBlockBegin
  2
ELEV_window_mulledCasement_2x3grid_elevation_24x72x3_80x72
 70
0
 10
0.0
 20
0.0
 30
0.0
  3
ELEV_window_mulledCasement_2x3grid_elevation_24x72x3_80x72
  1

  0
INSERT
  5
A3
330
A0
100
AcDbEntity
  8
A-WINDOW-FRAME
100
AcDbBlockReference
  2
window_Casement_2x3grid_elevation_24x72
 10
28.0
 20
0.0
 30
0.0
  0
INSERT
  5
A5
330
A0
100
AcDbEntity
  8
A-WINDOW-FRAME
100
AcDbBlockReference
  2
window_Casement_2x3grid_elevation_24x72
 10
0.0
 20
0.0
 30
0.0
  0
INSERT
  5
A7
330
A0
100
AcDbEntity
  8
A-WINDOW-FRAME
100
AcDbBlockReference
  2
window_Casement_2x3grid_elevation_24x72
 10
-28.0
 20
0.0
 30
0.0
  0
LWPOLYLINE
  5
A9
330
A0
100
AcDbEntity
  8
A-WINDOW-MULLION
100
AcDbPolyline
 90
4
 70
1
 10
12.0
 20
0.0
 10
16.0
 20
0.0
 10
16.0
 20
72.0
 10
12.0
 20
72.0
  0
LWPOLYLINE
  5
AA
330
A0
100
AcDbEntity
  8
A-WINDOW-MULLION
100
AcDbPolyline
 90
4
 70
1
 10
-16.0
 20
0.0
 10
-12.0
 20
0.0
 10
-12.0
 20
72.0
 10
-16.0
 20
72.0
  0
LWPOLYLINE
  5
AB
330
A0
100
AcDbEntity
  8
A-WINDOW-FRAME
100
AcDbPolyline
 90
4
 70
1
 10
-40.0
 20
0.0
 10
40.0
 20
0.0
 10
40.0
 20
72.0
 10
-40.0
 20
72.0
  0
ENDBLK
  5
A2
330
A0
100
AcDbEntity
  8
0
100
AcDbBlockEnd
  0
BLOCK
  5
B1
330
B0
100
AcDbEntity
  8
0
100
AcDbBlockBegin
  2
ELEV_garage_door_elevation_96x96
 70
0
 10
0.0
 20
0.0
 30
0.0
  3
ELEV_garage_door_elevation_96x96
  1

  0
LWPOLYLINE
  5
B3
330
B0
100
AcDbEntity
  8
A-DOOR
100
AcDbPolyline
 90
8
 70
1
 10
-48.0
 20
0.0
 10
-50.0
 20
0.0
 10
-50.0
 20
98.0
 10
50.0
 20
98.0
 10
50.0
 20
0.0
 10
48.0
 20
0.0
 10
48.0
 20
96.0
 10
-48.0
 20
96.0
  0
LWPOLYLINE
  5
B4
330
B0
100
AcDbEntity
  8
A-DOOR
100
AcDbPolyline
 90
2
 70
0
 10
-48.0
 20
72.0
 10
48.0
 20
72.0
  0
LWPOLYLINE
  5
B5
330
B0
100
AcDbEntity
  8
A-DOOR
100
AcDbPolyline
 90
4
 70
1
 10
42.25
 20
77.25
 10
42.25
 20
90.75
 10
5.75
 20
90.75
 10
5.75
 20
77.25
  0
LWPOLYLINE
  5
B6
330
B0
100
AcDbEntity
  8
A-DOOR
100
AcDbPolyline
 90
4
 70
1
 10
44.0
 20
75.5
 10
4.0
 20
75.5
 10
4.0
 20
92.5
 10
44.0
 20
92.5
  0
LWPOLYLINE
  5
B7
330
B0
100
AcDbEntity
  8
A-DOOR
100
AcDbPolyline
 90
2
 70
0
 10
48.0
 20
48.0
 10
-48.0
 20
48.0
  0
LWPOLYLINE
  5
B8
330
B0
100
AcDbEntity
  8
A-DOOR
100
AcDbPolyline
 90
4
 70
1
 10
-5.75
 20
77.25
 10
-5.75
 20
90.75
 10
-42.25
 20
90.75
 10
-42.25
 20
77.25
  0
LWPOLYLINE
  5
B9
330
B0
100
AcDbEntity
  8
A-DOOR
100
AcDbPolyline
 90
4
 70
1
 10
-4.0
 20
75.5
 10
-44.0
 20
75.5
 10
-44.0
 20
92.5
 10
-4.0
 20
92.5
  0
LWPOLYLINE
  5
BA
330
B0
100
AcDbEntity
  8
A-DOOR
100
AcDbPolyline
 90
2
 70
0
 10
48.0
 20
24.0
 10
-48.0
 20
24.0
  0
LWPOLYLINE
  5
BB
330
B0
100
AcDbEntity
  8
A-DOOR
100
AcDbPolyline
 90
2
 70
0
 10
48.0
 20
0.0
 10
-48.0
 20
0.0
  0
ENDBLK
  5
B2
330
B0
100
AcDbEntity
  8
0
100
AcDbBlockEnd
  0
BLOCK
  5
F3
330
F2
100
AcDbEntity
  8
0
100
AcDbBlockBegin
  2
window_Casement_2x3grid_elevation_32x72
 70
0
 10
0.0
 20
0.0
 30
0.0
  3
window_Casement_2x3grid_elevation_32x72
  1

  0
LWPOLYLINE
  5
F5
330
F2
100
AcDbEntity
  8
A-WINDOW-FRAME
100
AcDbPolyline
 90
4
 70
1
 10
-16.0
 20
0.0
 10
16.0
 20
0.0
 10
16.0
 20
72.0
 10
-16.0
 20
72.0
  0
LWPOLYLINE
  5
F6
330
F2
100
AcDbEntity
  8
A-WINDOW-FRAME
100
AcDbPolyline
 90
4
 70
1
 10
-15.25
 20
0.7500000000000107
 10
15.25
 20
0.7500000000000012
 10
15.25
 20
71.25
 10
-15.25
 20
71.25
  0
LWPOLYLINE
  5
F7
330
F2
100
AcDbEntity
  8
A-WINDOW-FRAME
100
AcDbPolyline
 90
4
 70
1
 10
-13.25
 20
2.750000000000023
 10
13.25
 20
2.749999999999996
 10
13.25
 20
69.25
 10
-13.25
 20
69.25
  0
LWPOLYLINE
  5
F8
330
F2
100
AcDbEntity
  8
A-WINDOW-MUNTIN
100
AcDbPolyline
 90
4
 70
1
 10
-0.375
 20
2.750000000000023
 10
0.375
 20
2.750000000000023
 10
0.375
 20
69.25
 10
-0.375
 20
69.25
  0
LWPOLYLINE
  5
F9
330
F2
100
AcDbEntity
  8
A-WINDOW-MUNTIN
100
AcDbPolyline
 90
4
 70
1
 10
-13.25
 20
46.70833333333334
 10
-0.375
 20
46.70833333333334
 10
-0.375
 20
47.45833333333334
 10
-13.25
 20
47.45833333333334
  0
LWPOLYLINE
  5
FA
330
F2
100
AcDbEntity
  8
A-WINDOW-MUNTIN
100
AcDbPolyline
 90
4
 70
1
 10
0.375
 20
46.70833333333334
 10
13.25
 20
46.70833333333334
 10
13.25
 20
47.45833333333334
 10
0.375
 20
47.45833333333334
  0
LWPOLYLINE
  5
FB
330
F2
100
AcDbEntity
  8
A-WINDOW-MUNTIN
100
AcDbPolyline
 90
4
 70
1
 10
-13.25
 20
24.54166666666668
 10
-0.375
 20
24.54166666666668
 10
-0.375
 20
25.29166666666668
 10
-13.25
 20
25.29166666666668
  0
LWPOLYLINE
  5
FC
330
F2
100
AcDbEntity
  8
A-WINDOW-MUNTIN
100
AcDbPolyline
 90
4
 70
1
 10
0.375
 20
24.54166666666668
 10
13.25
 20
24.54166666666668
 10
13.25
 20
25.29166666666668
 10
0.375
 20
25.29166666666668
  0
ENDBLK
  5
F4
330
F2
100
AcDbEntity
  8
0
100
AcDbBlockEnd
  0
BLOCK
  5
FE
330
FD
100
AcDbEntity
  8
0
100
AcDbBlockBegin
  2
ELEV_window_mulledCasement_2x3grid_elevation_32x72x2_68x72
 70
0
 10
0.0
 20
0.0
 30
0.0
  3
ELEV_window_mulledCasement_2x3grid_elevation_32x72x2_68x72
  1

  0
INSERT
  5
100
330
FD
100
AcDbEntity
  8
A-WINDOW-FRAME
100
AcDbBlockReference
  2
window_Casement_2x3grid_elevation_32x72
 10
18.0
 20
0.0
 30
0.0
  0
INSERT
  5
102
330
FD
100
AcDbEntity
  8
A-WINDOW-FRAME
100
AcDbBlockReference
  2
window_Casement_2x3grid_elevation_32x72
 10
-18.0
 20
0.0
 30
0.0
  0
LWPOLYLINE
  5
104
330
FD
100
AcDbEntity
  8
A-WINDOW-MULLION
100
AcDbPolyline
 90
4
 70
1
 10
-2.0
 20
0.0
 10
2.0
 20
0.0
 10
2.0
 20
72.0
 10
-2.0
 20
72.0
  0
LWPOLYLINE
  5
105
330
FD
100
AcDbEntity
  8
A-WINDOW-FRAME
100
AcDbPolyline
 90
4
 70
1
 10
-34.0
 20
0.0
 10
34.0
 20
0.0
 10
34.0
 20
72.0
 10
-34.0
 20
72.0
  0
ENDBLK
  5
FF
330
FD
100
AcDbEntity
  8
0
100
AcDbBlockEnd
  0
BLOCK
  5
109
330
108
100
AcDbEntity
  8
0
100
AcDbBlockBegin
  2
window_Casement_2x3grid_elevation_30x72
 70
0
 10
0.0
 20
0.0
 30
0.0
  3
window_Casement_2x3grid_elevation_30x72
  1

  0
LWPOLYLINE
  5
10B
330
108
100
AcDbEntity
  8
A-WINDOW-FRAME
100
AcDbPolyline
 90
4
 70
1
 10
-15.0
 20
0.0
 10
15.0
 20
0.0
 10
15.0
 20
72.0
 10
-15.0
 20
72.0
  0
LWPOLYLINE
  5
10C
330
108
100
AcDbEntity
  8
A-WINDOW-FRAME
100
AcDbPolyline
 90
4
 70
1
 10
-14.25
 20
0.7500000000000107
 10
14.25
 20
0.7500000000000012
 10
14.25
 20
71.25
 10
-14.25
 20
71.25
  0
LWPOLYLINE
  5
10D
330
108
100
AcDbEntity
  8
A-WINDOW-FRAME
100
AcDbPolyline
 90
4
 70
1
 10
-12.25
 20
2.750000000000023
 10
12.25
 20
2.75
 10
12.25
 20
69.25
 10
-12.25
 20
69.25000000000001
  0
LWPOLYLINE
  5
10E
330
108
100
AcDbEntity
  8
A-WINDOW-MUNTIN
100
AcDbPolyline
 90
4
 70
1
 10
-0.375
 20
2.750000000000023
 10
0.375
 20
2.750000000000023
 10
0.375
 20
69.25000000000001
 10
-0.375
 20
69.25000000000001
  0
LWPOLYLINE
  5
10F
330
108
100
AcDbEntity
  8
A-WINDOW-MUNTIN
100
AcDbPolyline
 90
4
 70
1
 10
-12.25
 20
46.70833333333335
 10
-0.375
 20
46.70833333333335
 10
-0.375
 20
47.45833333333335
 10
-12.25
 20
47.45833333333335
  0
LWPOLYLINE
  5
110
330
108
100
AcDbEntity
  8
A-WINDOW-MUNTIN
100
AcDbPolyline
 90
4
 70
1
 10
0.375
 20
46.70833333333335
 10
12.25
 20
46.70833333333335
 10
12.25
 20
47.45833333333335
 10
0.375
 20
47.45833333333335
  0
LWPOLYLINE
  5
111
330
108
100
AcDbEntity
  8
A-WINDOW-MUNTIN
100
AcDbPolyline
 90
4
 70
1
 10
-12.25
 20
24.54166666666669
 10
-0.375
 20
24.54166666666669
 10
-0.375
 20
25.29166666666669
 10
-12.25
 20
25.29166666666669
  0
LWPOLYLINE
  5
112
330
108
100
AcDbEntity
  8
A-WINDOW-MUNTIN
100
AcDbPolyline
 90
4
 70
1
 10
0.375
 20
24.54166666666669
 10
12.25
 20
24.54166666666669
 10
12.25
 20
25.29166666666669
 10
0.375
 20
25.29166666666669
  0
ENDBLK
  5
10A
330
108
100
AcDbEntity
  8
0
100
AcDbBlockEnd
  0
BLOCK
  5
114
330
113
100
AcDbEntity
  8
0
100
AcDbBlockBegin
  2
ELEV_window_mulledCasement_2x3grid_elevation_30x72x4_132x72
 70
0
 10
0.0
 20
0.0
 30
0.0
  3
ELEV_window_mulledCasement_2x3grid_elevation_30x72x4_132x72
  1

  0
INSERT
  5
116
330
113
100
AcDbEntity
  8
A-WINDOW-FRAME
100
AcDbBlockReference
  2
window_Casement_2x3grid_elevation_30x72
 10
51.0
 20
0.0
 30
0.0
  0
INSERT
  5
118
330
113
100
AcDbEntity
  8
A-WINDOW-FRAME
100
AcDbBlockReference
  2
window_Casement_2x3grid_elevation_30x72
 10
17.0
 20
0.0
 30
0.0
  0
INSERT
  5
11A
330
113
100
AcDbEntity
  8
A-WINDOW-FRAME
100
AcDbBlockReference
  2
window_Casement_2x3grid_elevation_30x72
 10
-17.0
 20
0.0
 30
0.0
  0
INSERT
  5
11C
330
113
100
AcDbEntity
  8
A-WINDOW-FRAME
100
AcDbBlockReference
  2
window_Casement_2x3grid_elevation_30x72
 10
-51.0
 20
0.0
 30
0.0
  0
LWPOLYLINE
  5
11E
330
113
100
AcDbEntity
  8
A-WINDOW-MULLION
100
AcDbPolyline
 90
4
 70
1
 10
32.0
 20
0.0
 10
36.0
 20
0.0
 10
36.0
 20
72.0
 10
32.0
 20
72.0
  0
LWPOLYLINE
  5
11F
330
113
100
AcDbEntity
  8
A-WINDOW-MULLION
100
AcDbPolyline
 90
4
 70
1
 10
-2.0
 20
0.0
 10
2.0
 20
0.0
 10
2.0
 20
72.0
 10
-2.0
 20
72.0
  0
LWPOLYLINE
  5
120
330
113
100
AcDbEntity
  8
A-WINDOW-MULLION
100
AcDbPolyline
 90
4
 70
1
 10
-36.0
 20
0.0
 10
-32.0
 20
0.0
 10
-32.0
 20
72.0
 10
-36.0
 20
72.0
  0
LWPOLYLINE
  5
121
330
113
100
AcDbEntity
  8
A-WINDOW-FRAME
100
AcDbPolyline
 90
4
 70
1
 10
-66.0
 20
0.0
 10
66.0
 20
0.0
 10
66.0
 20
72.0
 10
-66.0
 20
72.0
  0
ENDBLK
  5
115
330
113
100
AcDbEntity
  8
0
100
AcDbBlockEnd
  0
BLOCK
  5
125
330
124
100
AcDbEntity
  8
0
100
AcDbBlockBegin
  2
ELEV_extDoor_4-panel_sliding_glass_168x96
 70
0
 10
0.0
 20
0.0
 30
0.0
  3
ELEV_extDoor_4-panel_sliding_glass_168x96
  1

  0
LWPOLYLINE
  5
127
330
124
100
AcDbEntity
  8
A-DOOR
100
AcDbPolyline
 90
3
 70
0
 10
-7.020895522387946
 20
47.5
 10
-20.56119402985041
 20
47.5
 10
-20.56119402985041
 20
9.0
  0
LWPOLYLINE
  5
128
330
124
100
AcDbEntity
  8
A-DOOR
100
AcDbPolyline
 90
3
 70
0
 10
-21.56417910447726
 20
9.0
 10
-21.56417910447726
 20
47.5
 10
-35.10447761194018
 20
47.5
  0
LWPOLYLINE
  5
129
330
124
100
AcDbEntity
  8
A-DOOR
100
AcDbPolyline
 90
3
 70
0
 10
-35.10447761194018
 20
48.5
 10
-21.56417910447726
 20
48.5
 10
-21.56417910447726
 20
87.0
  0
LWPOLYLINE
  5
12A
330
124
100
AcDbEntity
  8
A-DOOR
100
AcDbPolyline
 90
3
 70
0
 10
-20.56119402985041
 20
87.0
 10
-20.56119402985041
 20
48.5
 10
-7.020895522387946
 20
48.5
  0
LWPOLYLINE
  5
12B
330
124
100
AcDbEntity
  8
A-DOOR
100
AcDbPolyline
 90
3
 70
0
 10
34.97910447761205
 20
47.5
 10
21.43880597014959
 20
47.5
 10
21.43880597014959
 20
9.0
  0
LWPOLYLINE
  5
12C
330
124
100
AcDbEntity
  8
A-DOOR
100
AcDbPolyline
 90
3
 70
0
 10
20.43582089552274
 20
9.0
 10
20.43582089552274
 20
47.5
 10
6.895522388059817
 20
47.5
  0
LWPOLYLINE
  5
12D
330
124
100
AcDbEntity
  8
A-DOOR
100
AcDbPolyline
 90
3
 70
0
 10
6.895522388059817
 20
48.5
 10
20.43582089552274
 20
48.5
 10
20.43582089552274
 20
87.0
  0
LWPOLYLINE
  5
12E
330
124
100
AcDbEntity
  8
A-DOOR
100
AcDbPolyline
 90
3
 70
0
 10
21.43880597014959
 20
87.0
 10
21.43880597014959
 20
48.5
 10
34.97910447761205
 20
48.5
  0
LWPOLYLINE
  5
12F
330
124
100
AcDbEntity
  8
A-DOOR
100
AcDbPolyline
 90
6
 70
0
 10
-0.1253731343281288
 20
0.0
 10
0.0
 20
0.0
 10
0.0
 20
96.0
 10
42.0
 20
96.0
 10
42.0
 20
0.0
 10
0.0
 20
0.0
  0
LWPOLYLINE
  5
130
330
124
100
AcDbEntity
  8
A-DOOR
100
AcDbPolyline
 90
4
 70
1
 10
6.895522388059817
 20
87.0
 10
6.895522388059817
 20
9.0
 10
34.97910447761205
 20
9.0
 10
34.97910447761205
 20
87.0
  0
LWPOLYLINE
  5
131
330
124
100
AcDbEntity
  8
A-DOOR
100
AcDbPolyline
 90
6
 70
0
 10
-42.12537313432813
 20
0.0
 10
-42.0
 20
0.0
 10
-42.0
 20
96.0
 10
0.0
 20
96.0
 10
0.0
 20
0.0
 10
-42.0
 20
0.0
  0
LWPOLYLINE
  5
132
330
124
100
AcDbEntity
  8
A-DOOR
100
AcDbPolyline
 90
4
 70
1
 10
-35.10447761194018
 20
87.0
 10
-35.10447761194018
 20
9.0
 10
-7.020895522387946
 20
9.0
 10
-7.020895522387946
 20
87.0
  0
LWPOLYLINE
  5
133
330
124
100
AcDbEntity
  8
A-DOOR
100
AcDbPolyline
 90
5
 70
0
 10
83.99611810665328
 20
0.0
 10
42.0
 20
0.0
 10
42.0
 20
96.0
 10
83.875
 20
96.0
 10
83.875
 20
0.0
  0
LWPOLYLINE
  5
134
330
124
100
AcDbEntity
  8
A-DOOR
100
AcDbPolyline
 90
6
 70
0
 10
-84.0
 20
0.0
 10
-83.875
 20
0.0
 10
-83.875
 20
96.0
 10
-42.0
 20
96.0
 10
-42.0
 20
0.0
 10
-83.875
 20
0.0
  0
LWPOLYLINE
  5
135
330
124
100
AcDbEntity
  8
A-DOOR
100
AcDbPolyline
 90
4
 70
1
 10
-77.0
 20
87.0
 10
-77.0
 20
9.0
 10
-49.0
 20
9.0
 10
-49.0
 20
87.0
  0
LWPOLYLINE
  5
136
330
124
100
AcDbEntity
  8
A-DOOR
100
AcDbPolyline
 90
4
 70
1
 10
49.0
 20
9.0
 10
77.0
 20
9.0
 10
77.0
 20
87.0
 10
49.0
 20
87.0
  0
LWPOLYLINE
  5
137
330
124
100
AcDbEntity
  8
A-DOOR
100
AcDbPolyline
 90
3
 70
0
 10
77.0
 20
47.5
 10
63.5
 20
47.5
 10
63.5
 20
9.0
  0
LWPOLYLINE
  5
138
330
124
100
AcDbEntity
  8
A-DOOR
100
AcDbPolyline
 90
3
 70
0
 10
-77.0
 20
48.5
 10
-63.5
 20
48.5
 10
-63.5
 20
87.0
  0
LWPOLYLINE
  5
139
330
124
100
AcDbEntity
  8
A-DOOR
100
AcDbPolyline
 90
3
 70
0
 10
-62.5
 20
87.0
 10
-62.5
 20
48.5
 10
-49.0
 20
48.5
  0
LWPOLYLINE
  5
13A
330
124
100
AcDbEntity
  8
A-DOOR
100
AcDbPolyline
 90
3
 70
0
 10
-49.0
 20
47.5
 10
-62.5
 20
47.5
 10
-62.5
 20
9.0
  0
LWPOLYLINE
  5
13B
330
124
100
AcDbEntity
  8
A-DOOR
100
AcDbPolyline
 90
3
 70
0
 10
-63.5
 20
9.0
 10
-63.5
 20
47.5
 10
-77.0
 20
47.5
  0
LWPOLYLINE
  5
13C
330
124
100
AcDbEntity
  8
A-DOOR
100
AcDbPolyline
 90
3
 70
0
 10
62.5
 20
9.0
 10
62.5
 20
47.5
 10
49.0
 20
47.5
  0
LWPOLYLINE
  5
13D
330
124
100
AcDbEntity
  8
A-DOOR
100
AcDbPolyline
 90
3
 70
0
 10
49.0
 20
48.5
 10
62.5
 20
48.5
 10
62.5
 20
87.0
  0
LWPOLYLINE
  5
13E
330
124
100
AcDbEntity
  8
A-DOOR
100
AcDbPolyline
 90
3
 70
0
 10
63.5
 20
87.0
 10
63.5
 20
48.5
 10
77.0
 20
48.5
  0
LWPOLYLINE
  5
13F
330
124
100
AcDbEntity
  8
A-DOOR
100
AcDbPolyline
 90
9
 70
1
 10
88.0
 20
80.0
 10
88.0
 20
0.0
 10
84.0
 20
0.0
 10
84.0
 20
96.0
 10
-84.0
 20
96.0
 10
-84.0
 20
0.0
 10
-88.0
 20
0.0
 10
-88.0
 20
100.0
 10
88.0
 20
100.0
  0
ENDBLK
  5
126
330
124
100
AcDbEntity
  8
0
100
AcDbBlockEnd
  0
BLOCK
  5
181
330
180
100
AcDbEntity
  8
0
100
AcDbBlockBegin
  2
ELEV_window_Casement_2x3grid_elevation_32x72
 70
0
 10
0.0
 20
0.0
 30
0.0
  3
ELEV_window_Casement_2x3grid_elevation_32x72
  1

  0
LWPOLYLINE
  5
183
330
180
100
AcDbEntity
  8
A-WINDOW-MUNTIN
100
AcDbPolyline
 90
4
 70
1
 10
0.375
 20
24.54166666666668
 10
13.25
 20
24.54166666666668
 10
13.25
 20
25.29166666666668
 10
0.375
 20
25.29166666666668
  0
LWPOLYLINE
  5
184
330
180
100
AcDbEntity
  8
A-WINDOW-MUNTIN
100
AcDbPolyline
 90
4
 70
1
 10
-13.25
 20
24.54166666666668
 10
-0.375
 20
24.54166666666668
 10
-0.375
 20
25.29166666666668
 10
-13.25
 20
25.29166666666668
  0
LWPOLYLINE
  5
185
330
180
100
AcDbEntity
  8
A-WINDOW-MUNTIN
100
AcDbPolyline
 90
4
 70
1
 10
0.375
 20
46.70833333333334
 10
13.25
 20
46.70833333333334
 10
13.25
 20
47.45833333333334
 10
0.375
 20
47.45833333333334
  0
LWPOLYLINE
  5
186
330
180
100
AcDbEntity
  8
A-WINDOW-MUNTIN
100
AcDbPolyline
 90
4
 70
1
 10
-13.25
 20
46.70833333333334
 10
-0.375
 20
46.70833333333334
 10
-0.375
 20
47.45833333333334
 10
-13.25
 20
47.45833333333334
  0
LWPOLYLINE
  5
187
330
180
100
AcDbEntity
  8
A-WINDOW-MUNTIN
100
AcDbPolyline
 90
4
 70
1
 10
-0.375
 20
2.750000000000023
 10
0.375
 20
2.750000000000023
 10
0.375
 20
69.25
 10
-0.375
 20
69.25
  0
LWPOLYLINE
  5
188
330
180
100
AcDbEntity
  8
A-WINDOW-FRAME
100
AcDbPolyline
 90
4
 70
1
 10
-13.25
 20
2.750000000000023
 10
13.25
 20
2.749999999999996
 10
13.25
 20
69.25
 10
-13.25
 20
69.25
  0
LWPOLYLINE
  5
189
330
180
100
AcDbEntity
  8
A-WINDOW-FRAME
100
AcDbPolyline
 90
4
 70
1
 10
-15.25
 20
0.7500000000000107
 10
15.25
 20
0.7500000000000012
 10
15.25
 20
71.25
 10
-15.25
 20
71.25
  0
LWPOLYLINE
  5
18A
330
180
100
AcDbEntity
  8
A-WINDOW-FRAME
100
AcDbPolyline
 90
4
 70
1
 10
-16.0
 20
0.0
 10
16.0
 20
0.0
 10
16.0
 20
72.0
 10
-16.0
 20
72.0
  0
ENDBLK
  5
182
330
180
100
AcDbEntity
  8
0
100
AcDbBlockEnd
  0
BLOCK
  5
1AA
330
1A9
100
AcDbEntity
  8
0
100
AcDbBlockBegin
  2
ELEV_window_mulledCasement_2x3grid_elevation_24x72x2_52x72
 70
0
 10
0.0
 20
0.0
 30
0.0
  3
ELEV_window_mulledCasement_2x3grid_elevation_24x72x2_52x72
  1

  0
INSERT
  5
1AC
330
1A9
100
AcDbEntity
  8
A-WINDOW-FRAME
100
AcDbBlockReference
  2
window_Casement_2x3grid_elevation_24x72
 10
14.0
 20
0.0
 30
0.0
  0
INSERT
  5
1AE
330
1A9
100
AcDbEntity
  8
A-WINDOW-FRAME
100
AcDbBlockReference
  2
window_Casement_2x3grid_elevation_24x72
 10
-14.0
 20
0.0
 30
0.0
  0
LWPOLYLINE
  5
1B0
330
1A9
100
AcDbEntity
  8
A-WINDOW-MULLION
100
AcDbPolyline
 90
4
 70
1
 10
-2.0
 20
0.0
 10
2.0
 20
0.0
 10
2.0
 20
72.0
 10
-2.0
 20
72.0
  0
LWPOLYLINE
  5
1B1
330
1A9
100
AcDbEntity
  8
A-WINDOW-FRAME
100
AcDbPolyline
 90
4
 70
1
 10
-26.0
 20
0.0
 10
26.0
 20
0.0
 10
26.0
 20
72.0
 10
-26.0
 20
72.0
  0
ENDBLK
  5
1AB
330
1A9
100
AcDbEntity
  8
0
100
AcDbBlockEnd
  0
BLOCK
  5
1B5
330
1B4
100
AcDbEntity
  8
0
100
AcDbBlockBegin
  2
ELEV_window_Casement_2x3grid_elevation_36x72
 70
0
 10
0.0
 20
0.0
 30
0.0
  3
ELEV_window_Casement_2x3grid_elevation_36x72
  1

  0
LWPOLYLINE
  5
1B7
330
1B4
100
AcDbEntity
  8
A-WINDOW-MUNTIN
100
AcDbPolyline
 90
4
 70
1
 10
0.375
 20
24.54166666666668
 10
15.25
 20
24.54166666666668
 10
15.25
 20
25.29166666666668
 10
0.375
 20
25.29166666666668
  0
LWPOLYLINE
  5
1B8
330
1B4
100
AcDbEntity
  8
A-WINDOW-MUNTIN
100
AcDbPolyline
 90
4
 70
1
 10
-15.25
 20
24.54166666666668
 10
-0.375
 20
24.54166666666668
 10
-0.375
 20
25.29166666666668
 10
-15.25
 20
25.29166666666668
  0
LWPOLYLINE
  5
1B9
330
1B4
100
AcDbEntity
  8
A-WINDOW-MUNTIN
100
AcDbPolyline
 90
4
 70
1
 10
0.375
 20
46.70833333333334
 10
15.25
 20
46.70833333333334
 10
15.25
 20
47.45833333333334
 10
0.375
 20
47.45833333333334
  0
LWPOLYLINE
  5
1BA
330
1B4
100
AcDbEntity
  8
A-WINDOW-MUNTIN
100
AcDbPolyline
 90
4
 70
1
 10
-15.25
 20
46.70833333333334
 10
-0.375
 20
46.70833333333334
 10
-0.375
 20
47.45833333333334
 10
-15.25
 20
47.45833333333334
  0
LWPOLYLINE
  5
1BB
330
1B4
100
AcDbEntity
  8
A-WINDOW-MUNTIN
100
AcDbPolyline
 90
4
 70
1
 10
-0.375
 20
2.750000000000023
 10
0.375
 20
2.750000000000023
 10
0.375
 20
69.25
 10
-0.375
 20
69.25
  0
LWPOLYLINE
  5
1BC
330
1B4
100
AcDbEntity
  8
A-WINDOW-FRAME
100
AcDbPolyline
 90
4
 70
1
 10
-15.25
 20
2.750000000000023
 10
15.25
 20
2.75
 10
15.25
 20
69.24999999999999
 10
-15.25
 20
69.25
  0
LWPOLYLINE
  5
1BD
330
1B4
100
AcDbEntity
  8
A-WINDOW-FRAME
100
AcDbPolyline
 90
4
 70
1
 10
-17.25
 20
0.7500000000000107
 10
17.25
 20
0.7500000000000012
 10
17.25
 20
71.25
 10
-17.25
 20
71.25
  0
LWPOLYLINE
  5
1BE
330
1B4
100
AcDbEntity
  8
A-WINDOW-FRAME
100
AcDbPolyline
 90
4
 70
1
 10
-18.0
 20
0.0
 10
18.0
 20
0.0
 10
18.0
 20
72.0
 10
-18.0
 20
72.0
  0
ENDBLK
  5
1B6
330
1B4
100
AcDbEntity
  8
0
100
AcDbBlockEnd
  0
BLOCK
  5
1C2
330
1C1
100
AcDbEntity
  8
0
100
AcDbBlockBegin
  2
ELEV_window_Casement_2x3grid_elevation_30x72
 70
0
 10
0.0
 20
0.0
 30
0.0
  3
ELEV_window_Casement_2x3grid_elevation_30x72
  1

  0
LWPOLYLINE
  5
1C4
330
1C1
100
AcDbEntity
  8
A-WINDOW-MUNTIN
100
AcDbPolyline
 90
4
 70
1
 10
0.375
 20
24.54166666666669
 10
12.25
 20
24.54166666666669
 10
12.25
 20
25.29166666666669
 10
0.375
 20
25.29166666666669
  0
LWPOLYLINE
  5
1C5
330
1C1
100
AcDbEntity
  8
A-WINDOW-MUNTIN
100
AcDbPolyline
 90
4
 70
1
 10
-12.25
 20
24.54166666666669
 10
-0.375
 20
24.54166666666669
 10
-0.375
 20
25.29166666666669
 10
-12.25
 20
25.29166666666669
  0
LWPOLYLINE
  5
1C6
330
1C1
100
AcDbEntity
  8
A-WINDOW-MUNTIN
100
AcDbPolyline
 90
4
 70
1
 10
0.375
 20
46.70833333333335
 10
12.25
 20
46.70833333333335
 10
12.25
 20
47.45833333333335
 10
0.375
 20
47.45833333333335
  0
LWPOLYLINE
  5
1C7
330
1C1
100
AcDbEntity
  8
A-WINDOW-MUNTIN
100
AcDbPolyline
 90
4
 70
1
 10
-12.25
 20
46.70833333333335
 10
-0.375
 20
46.70833333333335
 10
-0.375
 20
47.45833333333335
 10
-12.25
 20
47.45833333333335
  0
LWPOLYLINE
  5
1C8
330
1C1
100
AcDbEntity
  8
A-WINDOW-MUNTIN
100
AcDbPolyline
 90
4
 70
1
 10
-0.375
 20
2.750000000000023
 10
0.375
 20
2.750000000000023
 10
0.375
 20
69.25000000000001
 10
-0.375
 20
69.25000000000001
  0
LWPOLYLINE
  5
1C9
330
1C1
100
AcDbEntity
  8
A-WINDOW-FRAME
100
AcDbPolyline
 90
4
 70
1
 10
-12.25
 20
2.750000000000023
 10
12.25
 20
2.75
 10
12.25
 20
69.25
 10
-12.25
 20
69.25000000000001
  0
LWPOLYLINE
  5
1CA
330
1C1
100
AcDbEntity
  8
A-WINDOW-FRAME
100
AcDbPolyline
 90
4
 70
1
 10
-14.25
 20
0.7500000000000107
 10
14.25
 20
0.7500000000000012
 10
14.25
 20
71.25
 10
-14.25
 20
71.25
  0
LWPOLYLINE
  5
1CB
330
1C1
100
AcDbEntity
  8
A-WINDOW-FRAME
100
AcDbPolyline
 90
4
 70
1
 10
-15.0
 20
0.0
 10
15.0
 20
0.0
 10
15.0
 20
72.0
 10
-15.0
 20
72.0
  0
ENDBLK
  5
1C3
330
1C1
100
AcDbEntity
  8
0
100
AcDbBlockEnd
  0
BLOCK
  5
1CF
330
1CE
100
AcDbEntity
  8
0
100
AcDbBlockBegin
  2
ELEV_window_Casement_2x3grid_elevation_28x72
 70
0
 10
0.0
 20
0.0
 30
0.0
  3
ELEV_window_Casement_2x3grid_elevation_28x72
  1

  0
LWPOLYLINE
  5
1D1
330
1CE
100
AcDbEntity
  8
A-WINDOW-MUNTIN
100
AcDbPolyline
 90
4
 70
1
 10
0.375
 20
24.54166666666668
 10
11.25
 20
24.54166666666668
 10
11.25
 20
25.29166666666668
 10
0.375
 20
25.29166666666668
  0
LWPOLYLINE
  5
1D2
330
1CE
100
AcDbEntity
  8
A-WINDOW-MUNTIN
100
AcDbPolyline
 90
4
 70
1
 10
-11.25
 20
24.54166666666668
 10
-0.375
 20
24.54166666666668
 10
-0.375
 20
25.29166666666668
 10
-11.25
 20
25.29166666666668
  0
LWPOLYLINE
  5
1D3
330
1CE
100
AcDbEntity
  8
A-WINDOW-MUNTIN
100
AcDbPolyline
 90
4
 70
1
 10
0.375
 20
46.70833333333334
 10
11.25
 20
46.70833333333334
 10
11.25
 20
47.45833333333334
 10
0.375
 20
47.45833333333334
  0
LWPOLYLINE
  5
1D4
330
1CE
100
AcDbEntity
  8
A-WINDOW-MUNTIN
100
AcDbPolyline
 90
4
 70
1
 10
-11.25
 20
46.70833333333334
 10
-0.375
 20
46.70833333333334
 10
-0.375
 20
47.45833333333334
 10
-11.25
 20
47.45833333333334
  0
LWPOLYLINE
  5
1D5
330
1CE
100
AcDbEntity
  8
A-WINDOW-MUNTIN
100
AcDbPolyline
 90
4
 70
1
 10
-0.375
 20
2.750000000000008
 10
0.375
 20
2.750000000000008
 10
0.375
 20
69.25000000000001
 10
-0.375
 20
69.25000000000001
  0
LWPOLYLINE
  5
1D6
330
1CE
100
AcDbEntity
  8
A-WINDOW-FRAME
100
AcDbPolyline
 90
4
 70
1
 10
-11.25
 20
2.750000000000008
 10
11.25
 20
2.750000000000004
 10
11.25
 20
69.24999999999999
 10
-11.25
 20
69.25000000000001
  0
LWPOLYLINE
  5
1D7
330
1CE
100
AcDbEntity
  8
A-WINDOW-FRAME
100
AcDbPolyline
 90
4
 70
1
 10
-13.25
 20
0.7500000000000107
 10
13.25
 20
0.7500000000000012
 10
13.25
 20
71.25
 10
-13.25
 20
71.25
  0
LWPOLYLINE
  5
1D8
330
1CE
100
AcDbEntity
  8
A-WINDOW-FRAME
100
AcDbPolyline
 90
4
 70
1
 10
-14.0
 20
0.0
 10
14.0
 20
0.0
 10
14.0
 20
72.0
 10
-14.0
 20
72.0
  0
ENDBLK
  5
1D0
330
1CE
100
AcDbEntity
  8
0
100
AcDbBlockEnd
  0
ENDSEC
  0
SECTION
  2
ENTITIES
  0
LINE
  5
3D
330
17
100
AcDbEntity
  8
A-WALL
100
AcDbLine
 10
425.9
 20
1141.9708667965385
 30
0.0
 11
753.9
 21
1141.9708667965385
 31
0.0
  0
LINE
  5
3E
330
17
100
AcDbEntity
  8
A-WALL
100
AcDbLine
 10
35.89999999999998
 20
1141.9708667965385
 30
0.0
 11
203.89999999999998
 21
1141.9708667965385
 31
0.0
  0
LINE
  5
3F
330
17
100
AcDbEntity
  8
A-WALL
100
AcDbLine
 10
283.9
 20
1141.9708667965385
 30
0.0
 11
425.9
 21
1141.9708667965385
 31
0.0
  0
LINE
  5
40
330
17
100
AcDbEntity
  8
A-WALL
100
AcDbLine
 10
203.89999999999998
 20
1141.9708667965385
 30
0.0
 11
283.9
 21
1141.9708667965385
 31
0.0
  0
LINE
  5
41
330
17
100
AcDbEntity
  8
A-WALL
100
AcDbLine
 10
35.89999999999998
 20
1021.9708667965385
 30
0.0
 11
35.89999999999998
 21
1141.9708667965385
 31
0.0
  0
LINE
  5
42
330
17
100
AcDbEntity
  8
A-WALL
100
AcDbLine
 10
203.89999999999998
 20
1021.9708667965385
 30
0.0
 11
203.89999999999998
 21
1141.9708667965385
 31
0.0
  0
LINE
  5
43
330
17
100
AcDbEntity
  8
A-WALL
100
AcDbLine
 10
283.9
 20
1021.9708667965385
 30
0.0
 11
283.9
 21
1141.9708667965385
 31
0.0
  0
LINE
  5
44
330
17
100
AcDbEntity
  8
A-WALL
100
AcDbLine
 10
425.9
 20
1021.9708667965385
 30
0.0
 11
425.9
 21
1141.9708667965385
 31
0.0
  0
LINE
  5
45
330
17
100
AcDbEntity
  8
A-WALL
100
AcDbLine
 10
753.9
 20
1021.9708667965385
 30
0.0
 11
753.9
 21
1141.9708667965385
 31
0.0
  0
LINE
  5
46
330
17
100
AcDbEntity
  8
A-GRADE
100
AcDbLine
 10
0.0
 20
1003.9708667965385
 30
0.0
 11
789.8000000000001
 21
1003.9708667965385
 31
0.0
  0
LINE
  5
47
330
17
100
AcDbEntity
  8
A-WALL
100
AcDbLine
 10
425.9
 20
1003.9708667965385
 30
0.0
 11
485.44399999999996
 21
1003.9708667965385
 31
0.0
  0
LINE
  5
48
330
17
100
AcDbEntity
  8
A-WALL
100
AcDbLine
 10
425.9
 20
1021.9708667965385
 30
0.0
 11
485.44399999999996
 21
1021.9708667965385
 31
0.0
  0
LINE
  5
49
330
17
100
AcDbEntity
  8
A-WALL
100
AcDbLine
 10
581.444
 20
1003.9708667965385
 30
0.0
 11
594.106
 21
1003.9708667965385
 31
0.0
  0
LINE
  5
4A
330
17
100
AcDbEntity
  8
A-WALL
100
AcDbLine
 10
581.444
 20
1021.9708667965385
 30
0.0
 11
594.106
 21
1021.9708667965385
 31
0.0
  0
LINE
  5
4B
330
17
100
AcDbEntity
  8
A-WALL
100
AcDbLine
 10
690.1060000000001
 20
1003.9708667965385
 30
0.0
 11
753.9
 21
1003.9708667965385
 31
0.0
  0
LINE
  5
4C
330
17
100
AcDbEntity
  8
A-WALL
100
AcDbLine
 10
690.1060000000001
 20
1021.9708667965385
 30
0.0
 11
753.9
 21
1021.9708667965385
 31
0.0
  0
LINE
  5
4D
330
17
100
AcDbEntity
  8
A-WALL
100
AcDbLine
 10
35.89999999999998
 20
1003.9708667965385
 30
0.0
 11
203.89999999999998
 21
1003.9708667965385
 31
0.0
  0
LINE
  5
4E
330
17
100
AcDbEntity
  8
A-WALL
100
AcDbLine
 10
35.89999999999998
 20
1021.9708667965385
 30
0.0
 11
203.89999999999998
 21
1021.9708667965385
 31
0.0
  0
LINE
  5
4F
330
17
100
AcDbEntity
  8
A-WALL
100
AcDbLine
 10
283.9
 20
1003.9708667965385
 30
0.0
 11
425.9
 21
1003.9708667965385
 31
0.0
  0
LINE
  5
50
330
17
100
AcDbEntity
  8
A-WALL
100
AcDbLine
 10
283.9
 20
1021.9708667965385
 30
0.0
 11
425.9
 21
1021.9708667965385
 31
0.0
  0
LINE
  5
51
330
17
100
AcDbEntity
  8
A-WALL
100
AcDbLine
 10
203.89999999999998
 20
1003.9708667965385
 30
0.0
 11
283.9
 21
1003.9708667965385
 31
0.0
  0
LINE
  5
52
330
17
100
AcDbEntity
  8
A-WALL
100
AcDbLine
 10
203.89999999999998
 20
1021.9708667965385
 30
0.0
 11
283.9
 21
1021.9708667965385
 31
0.0
  0
LINE
  5
53
330
17
100
AcDbEntity
  8
A-WALL
100
AcDbLine
 10
35.89999999999998
 20
1003.9708667965385
 30
0.0
 11
35.89999999999998
 21
1021.9708667965385
 31
0.0
  0
LINE
  5
54
330
17
100
AcDbEntity
  8
A-WALL
100
AcDbLine
 10
203.89999999999998
 20
1003.9708667965385
 30
0.0
 11
203.89999999999998
 21
1021.9708667965385
 31
0.0
  0
LINE
  5
55
330
17
100
AcDbEntity
  8
A-WALL
100
AcDbLine
 10
283.9
 20
1003.9708667965385
 30
0.0
 11
283.9
 21
1021.9708667965385
 31
0.0
  0
LINE
  5
56
330
17
100
AcDbEntity
  8
A-WALL
100
AcDbLine
 10
425.9
 20
1003.9708667965385
 30
0.0
 11
425.9
 21
1021.9708667965385
 31
0.0
  0
LINE
  5
57
330
17
100
AcDbEntity
  8
A-WALL
100
AcDbLine
 10
485.43999999999994
 20
1003.9708667965385
 30
0.0
 11
485.43999999999994
 21
1021.9708667965385
 31
0.0
  0
LINE
  5
58
330
17
100
AcDbEntity
  8
A-WALL
100
AcDbLine
 10
581.4399999999999
 20
1003.9708667965385
 30
0.0
 11
581.4399999999999
 21
1021.9708667965385
 31
0.0
  0
LINE
  5
59
330
17
100
AcDbEntity
  8
A-WALL
100
AcDbLine
 10
594.11
 20
1003.9708667965385
 30
0.0
 11
594.11
 21
1021.9708667965385
 31
0.0
  0
LINE
  5
5A
330
17
100
AcDbEntity
  8
A-WALL
100
AcDbLine
 10
690.11
 20
1003.9708667965385
 30
0.0
 11
690.11
 21
1021.9708667965385
 31
0.0
  0
LINE
  5
5B
330
17
100
AcDbEntity
  8
A-WALL
100
AcDbLine
 10
753.9
 20
1003.9708667965385
 30
0.0
 11
753.9
 21
1021.9708667965385
 31
0.0
  0
LINE
  5
5C
330
17
100
AcDbEntity
  8
A-TRIM
100
AcDbLine
 10
425.9
 20
1133.9708667965385
 30
0.0
 11
753.9
 21
1133.9708667965385
 31
0.0
  0
LINE
  5
5D
330
17
100
AcDbEntity
  8
A-TRIM
100
AcDbLine
 10
35.89999999999998
 20
1133.9708667965385
 30
0.0
 11
203.89999999999998
 21
1133.9708667965385
 31
0.0
  0
LINE
  5
5E
330
17
100
AcDbEntity
  8
A-TRIM
100
AcDbLine
 10
283.9
 20
1133.9708667965385
 30
0.0
 11
425.9
 21
1133.9708667965385
 31
0.0
  0
LINE
  5
5F
330
17
100
AcDbEntity
  8
A-TRIM
100
AcDbLine
 10
203.89999999999998
 20
1133.9708667965385
 30
0.0
 11
283.9
 21
1133.9708667965385
 31
0.0
  0
LINE
  5
60
330
17
100
AcDbEntity
  8
A-ROOF
100
AcDbLine
 10
408.2750353234959
 20
1149.9708667965385
 30
0.0
 11
771.5250018022192
 21
1149.9708667965385
 31
0.0
  0
LINE
  5
61
330
17
100
AcDbEntity
  8
A-ROOF
100
AcDbLine
 10
408.4482403556914
 20
1150.0708667965384
 30
0.0
 11
589.8999810166247
 21
1254.8321074838714
 31
0.0
  0
LINE
  5
62
330
17
100
AcDbEntity
  8
A-ROOF
100
AcDbLine
 10
771.3517966984124
 20
1150.0708667965384
 30
0.0
 11
589.8999810166247
 21
1254.8321074838714
 31
0.0
  0
LINE
  5
63
330
17
100
AcDbEntity
  8
A-ROOF
100
AcDbLine
 10
408.1750353234959
 20
1149.9708667965385
 30
0.0
 11
221.62499128927402
 21
1149.9708667965385
 31
0.0
  0
LINE
  5
64
330
17
100
AcDbEntity
  8
A-ROOF
100
AcDbLine
 10
261.8999949537863
 20
1290.6278223953848
 30
0.0
 11
120.17097015427817
 21
1208.8005374893892
 31
0.0
  0
LINE
  5
65
330
17
100
AcDbEntity
  8
A-ROOF
100
AcDbLine
 10
527.3924294130294
 20
1290.6278223953848
 30
0.0
 11
261.8999949537863
 21
1290.6278223953848
 31
0.0
  0
LINE
  5
66
330
17
100
AcDbEntity
  8
A-ROOF
100
AcDbLine
 10
589.7999810661087
 20
1254.8898425312664
 30
0.0
 11
527.9865797885005
 21
1290.5778567151813
 31
0.0
  0
LINE
  5
67
330
17
100
AcDbEntity
  8
A-ROOF
100
AcDbLine
 10
221.35178620999613
 20
1150.0708667965384
 30
0.0
 11
119.89999182993972
 21
1208.6440880918126
 31
0.0
  0
LINE
  5
68
330
17
100
AcDbEntity
  8
A-ROOF
100
AcDbLine
 10
221.524991289274
 20
1149.9708667965385
 30
0.0
 11
18.274992370605446
 21
1149.9708667965385
 31
0.0
  0
LINE
  5
69
330
17
100
AcDbEntity
  8
A-ROOF
100
AcDbLine
 10
119.89999182993972
 20
1208.6440880918126
 30
0.0
 11
18.448197449883253
 21
1150.0708667965384
 31
0.0
  0
LINE
  5
6A
330
17
100
AcDbEntity
  8
A-ROOF
100
AcDbLine
 10
408.2750353234959
 20
1149.9708667965385
 30
0.0
 11
408.2750353234959
 21
1141.97086689322
 31
0.0
  0
LINE
  5
6B
330
17
100
AcDbEntity
  8
A-ROOF
100
AcDbLine
 10
771.5250018022192
 20
1149.9708667965385
 30
0.0
 11
771.5250018022192
 21
1141.97086689322
 31
0.0
  0
LINE
  5
6C
330
17
100
AcDbEntity
  8
A-ROOF
100
AcDbLine
 10
408.2750353234959
 20
1141.97086689322
 30
0.0
 11
771.5250018022192
 21
1141.97086689322
 31
0.0
  0
LINE
  5
6D
330
17
100
AcDbEntity
  8
A-ROOF
100
AcDbLine
 10
221.62499128927402
 20
1141.97086689322
 30
0.0
 11
408.1750353234959
 21
1141.97086689322
 31
0.0
  0
LINE
  5
6E
330
17
100
AcDbEntity
  8
A-ROOF
100
AcDbLine
 10
18.274992370605446
 20
1149.9708667965385
 30
0.0
 11
18.274992370605446
 21
1141.97086689322
 31
0.0
  0
LINE
  5
6F
330
17
100
AcDbEntity
  8
A-ROOF
100
AcDbLine
 10
221.524991289274
 20
1149.9708667965385
 30
0.0
 11
221.524991289274
 21
1141.97086689322
 31
0.0
  0
LINE
  5
70
330
17
100
AcDbEntity
  8
A-ROOF
100
AcDbLine
 10
18.274992370605446
 20
1141.97086689322
 30
0.0
 11
221.524991289274
 21
1141.97086689322
 31
0.0
  0
LINE
  5
71
330
17
100
AcDbEntity
  8
A-COLUMN
100
AcDbLine
 10
213.42999999999995
 20
1021.9708667965385
 30
0.0
 11
225.24199999999985
 21
1021.9708667965385
 31
0.0
  0
LINE
  5
72
330
17
100
AcDbEntity
  8
A-COLUMN
100
AcDbLine
 10
213.42999999999995
 20
1141.9708667965385
 30
0.0
 11
225.24199999999985
 21
1141.9708667965385
 31
0.0
  0
LINE
  5
73
330
17
100
AcDbEntity
  8
A-COLUMN
100
AcDbLine
 10
213.42999999999995
 20
1021.9708667965385
 30
0.0
 11
213.42999999999995
 21
1141.9708667965385
 31
0.0
  0
LINE
  5
74
330
17
100
AcDbEntity
  8
A-COLUMN
100
AcDbLine
 10
225.24199999999985
 20
1021.9708667965385
 30
0.0
 11
225.24199999999985
 21
1141.9708667965385
 31
0.0
  0
LINE
  5
75
330
17
100
AcDbEntity
  8
A-TRIM
100
AcDbLine
 10
213.42999999999995
 20
1133.9708667965385
 30
0.0
 11
225.24199999999985
 21
1133.9708667965385
 31
0.0
  0
LINE
  5
76
330
17
100
AcDbEntity
  8
A-COLUMN
100
AcDbLine
 10
308.994
 20
1021.9708667965385
 30
0.0
 11
320.8059999999999
 21
1021.9708667965385
 31
0.0
  0
LINE
  5
77
330
17
100
AcDbEntity
  8
A-COLUMN
100
AcDbLine
 10
308.994
 20
1141.9708667965385
 30
0.0
 11
320.8059999999999
 21
1141.9708667965385
 31
0.0
  0
LINE
  5
78
330
17
100
AcDbEntity
  8
A-COLUMN
100
AcDbLine
 10
308.994
 20
1021.9708667965385
 30
0.0
 11
308.994
 21
1141.9708667965385
 31
0.0
  0
LINE
  5
79
330
17
100
AcDbEntity
  8
A-COLUMN
100
AcDbLine
 10
320.8059999999999
 20
1021.9708667965385
 30
0.0
 11
320.8059999999999
 21
1141.9708667965385
 31
0.0
  0
LINE
  5
7A
330
17
100
AcDbEntity
  8
A-TRIM
100
AcDbLine
 10
308.994
 20
1133.9708667965385
 30
0.0
 11
320.8059999999999
 21
1133.9708667965385
 31
0.0
  0
LINE
  5
7B
330
17
100
AcDbEntity
  8
A-COLUMN
100
AcDbLine
 10
404.558
 20
1021.9708667965385
 30
0.0
 11
416.3699999999999
 21
1021.9708667965385
 31
0.0
  0
LINE
  5
7C
330
17
100
AcDbEntity
  8
A-COLUMN
100
AcDbLine
 10
404.558
 20
1141.9708667965385
 30
0.0
 11
416.3699999999999
 21
1141.9708667965385
 31
0.0
  0
LINE
  5
7D
330
17
100
AcDbEntity
  8
A-COLUMN
100
AcDbLine
 10
404.558
 20
1021.9708667965385
 30
0.0
 11
404.558
 21
1141.9708667965385
 31
0.0
  0
LINE
  5
7E
330
17
100
AcDbEntity
  8
A-COLUMN
100
AcDbLine
 10
416.3699999999999
 20
1021.9708667965385
 30
0.0
 11
416.3699999999999
 21
1141.9708667965385
 31
0.0
  0
LINE
  5
7F
330
17
100
AcDbEntity
  8
A-TRIM
100
AcDbLine
 10
404.558
 20
1133.9708667965385
 30
0.0
 11
416.3699999999999
 21
1133.9708667965385
 31
0.0
  0
INSERT
  5
93
330
17
100
AcDbEntity
  8
A-DOOR
100
AcDbBlockReference
  2
ELEV_extDoor_single_paneled_glass_2x3grid_elevation_36in+14inSL_51.5x96
 10
232.524
 20
1021.9708667965385
 30
0.0
  0
INSERT
  5
AC
330
17
100
AcDbEntity
  8
A-WINDOW
100
AcDbBlockReference
  2
ELEV_window_mulledCasement_2x3grid_elevation_24x72x3_80x72
 10
354.9
 20
1045.9708667965385
 30
0.0
  0
INSERT
  5
AE
330
17
100
AcDbEntity
  8
A-WINDOW
100
AcDbBlockReference
  2
ELEV_window_mulledCasement_2x3grid_elevation_24x72x3_80x72
 10
119.89999999999998
 20
1045.9708667965385
 30
0.0
  0
INSERT
  5
BC
330
17
100
AcDbEntity
  8
A-DOOR
100
AcDbBlockReference
  2
ELEV_garage_door_elevation_96x96
 10
533.444
 20
1003.9708667965385
 30
0.0
  0
INSERT
  5
BE
330
17
100
AcDbEntity
  8
A-DOOR
100
AcDbBlockReference
  2
ELEV_garage_door_elevation_96x96
 10
642.106
 20
1003.9708667965385
 30
0.0
  0
MTEXT
  5
C0
330
17
100
AcDbEntity
  8
G-ANNO-TEXT
100
AcDbMText
 10
394.90000000000003
 20
979.9708667965385
 30
0.0
 40
10.0
 71
5
  1
FRONT ELEVATION
  7
ELEVATION_TITLE
  0
LINE
  5
C1
330
17
100
AcDbEntity
  8
A-WALL
100
AcDbLine
 10
35.90000000000009
 20
807.3139111976924
 30
0.0
 11
247.9000000000001
 21
807.3139111976924
 31
0.0
  0
LINE
  5
C2
330
17
100
AcDbEntity
  8
A-WALL
100
AcDbLine
 10
247.9000000000001
 20
807.3139111976924
 30
0.0
 11
399.9000000000001
 21
807.3139111976924
 31
0.0
  0
LINE
  5
C3
330
17
100
AcDbEntity
  8
A-WALL
100
AcDbLine
 10
399.9000000000001
 20
807.3139111976924
 30
0.0
 11
409.9000000000001
 21
807.3139111976924
 31
0.0
  0
LINE
  5
C4
330
17
100
AcDbEntity
  8
A-WALL
100
AcDbLine
 10
409.9000000000001
 20
807.3139111976924
 30
0.0
 11
753.9000000000001
 21
807.3139111976924
 31
0.0
  0
LINE
  5
C5
330
17
100
AcDbEntity
  8
A-WALL
100
AcDbLine
 10
35.90000000000009
 20
687.3139111976924
 30
0.0
 11
35.90000000000009
 21
807.3139111976924
 31
0.0
  0
LINE
  5
C6
330
17
100
AcDbEntity
  8
A-WALL
100
AcDbLine
 10
247.9000000000001
 20
687.3139111976924
 30
0.0
 11
247.9000000000001
 21
807.3139111976924
 31
0.0
  0
LINE
  5
C7
330
17
100
AcDbEntity
  8
A-WALL
100
AcDbLine
 10
399.9000000000001
 20
687.3139111976924
 30
0.0
 11
399.9000000000001
 21
807.3139111976924
 31
0.0
  0
LINE
  5
C8
330
17
100
AcDbEntity
  8
A-WALL
100
AcDbLine
 10
409.9000000000001
 20
687.3139111976924
 30
0.0
 11
409.9000000000001
 21
807.3139111976924
 31
0.0
  0
LINE
  5
C9
330
17
100
AcDbEntity
  8
A-WALL
100
AcDbLine
 10
753.9000000000001
 20
687.3139111976924
 30
0.0
 11
753.9000000000001
 21
807.3139111976924
 31
0.0
  0
LINE
  5
CA
330
17
100
AcDbEntity
  8
A-GRADE
100
AcDbLine
 10
0.0
 20
669.3139111976924
 30
0.0
 11
789.8000000000001
 21
669.3139111976924
 31
0.0
  0
LINE
  5
CB
330
17
100
AcDbEntity
  8
A-WALL
100
AcDbLine
 10
35.90000000000009
 20
669.3139111976924
 30
0.0
 11
247.9000000000001
 21
669.3139111976924
 31
0.0
  0
LINE
  5
CC
330
17
100
AcDbEntity
  8
A-WALL
100
AcDbLine
 10
35.90000000000009
 20
687.3139111976924
 30
0.0
 11
247.9000000000001
 21
687.3139111976924
 31
0.0
  0
LINE
  5
CD
330
17
100
AcDbEntity
  8
A-WALL
100
AcDbLine
 10
247.9000000000001
 20
669.3139111976924
 30
0.0
 11
399.9000000000001
 21
669.3139111976924
 31
0.0
  0
LINE
  5
CE
330
17
100
AcDbEntity
  8
A-WALL
100
AcDbLine
 10
247.9000000000001
 20
687.3139111976924
 30
0.0
 11
399.9000000000001
 21
687.3139111976924
 31
0.0
  0
LINE
  5
CF
330
17
100
AcDbEntity
  8
A-WALL
100
AcDbLine
 10
399.9000000000001
 20
669.3139111976924
 30
0.0
 11
409.9000000000001
 21
669.3139111976924
 31
0.0
  0
LINE
  5
D0
330
17
100
AcDbEntity
  8
A-WALL
100
AcDbLine
 10
399.9000000000001
 20
687.3139111976924
 30
0.0
 11
409.9000000000001
 21
687.3139111976924
 31
0.0
  0
LINE
  5
D1
330
17
100
AcDbEntity
  8
A-WALL
100
AcDbLine
 10
409.9000000000001
 20
669.3139111976924
 30
0.0
 11
753.9000000000001
 21
669.3139111976924
 31
0.0
  0
LINE
  5
D2
330
17
100
AcDbEntity
  8
A-WALL
100
AcDbLine
 10
409.9000000000001
 20
687.3139111976924
 30
0.0
 11
753.9000000000001
 21
687.3139111976924
 31
0.0
  0
LINE
  5
D3
330
17
100
AcDbEntity
  8
A-WALL
100
AcDbLine
 10
35.90000000000009
 20
669.3139111976924
 30
0.0
 11
35.90000000000009
 21
687.3139111976924
 31
0.0
  0
LINE
  5
D4
330
17
100
AcDbEntity
  8
A-WALL
100
AcDbLine
 10
247.9000000000001
 20
669.3139111976924
 30
0.0
 11
247.9000000000001
 21
687.3139111976924
 31
0.0
  0
LINE
  5
D5
330
17
100
AcDbEntity
  8
A-WALL
100
AcDbLine
 10
399.9000000000001
 20
669.3139111976924
 30
0.0
 11
399.9000000000001
 21
687.3139111976924
 31
0.0
  0
LINE
  5
D6
330
17
100
AcDbEntity
  8
A-WALL
100
AcDbLine
 10
409.9000000000001
 20
669.3139111976924
 30
0.0
 11
409.9000000000001
 21
687.3139111976924
 31
0.0
  0
LINE
  5
D7
330
17
100
AcDbEntity
  8
A-WALL
100
AcDbLine
 10
753.9000000000001
 20
669.3139111976924
 30
0.0
 11
753.9000000000001
 21
687.3139111976924
 31
0.0
  0
LINE
  5
D8
330
17
100
AcDbEntity
  8
A-TRIM
100
AcDbLine
 10
35.90000000000009
 20
799.3139111976924
 30
0.0
 11
247.9000000000001
 21
799.3139111976924
 31
0.0
  0
LINE
  5
D9
330
17
100
AcDbEntity
  8
A-TRIM
100
AcDbLine
 10
247.9000000000001
 20
799.3139111976924
 30
0.0
 11
399.9000000000001
 21
799.3139111976924
 31
0.0
  0
LINE
  5
DA
330
17
100
AcDbEntity
  8
A-TRIM
100
AcDbLine
 10
399.9000000000001
 20
799.3139111976924
 30
0.0
 11
409.9000000000001
 21
799.3139111976924
 31
0.0
  0
LINE
  5
DB
330
17
100
AcDbEntity
  8
A-TRIM
100
AcDbLine
 10
409.9000000000001
 20
799.3139111976924
 30
0.0
 11
753.9000000000001
 21
799.3139111976924
 31
0.0
  0
LINE
  5
DC
330
17
100
AcDbEntity
  8
A-ROOF
100
AcDbLine
 10
261.89996323472883
 20
955.9708667965385
 30
0.0
 11
526.5417659208745
 21
955.9708667965385
 31
0.0
  0
LINE
  5
DD
330
17
100
AcDbEntity
  8
A-ROOF
100
AcDbLine
 10
527.9000050462138
 20
955.9708667965385
 30
0.0
 11
771.2424411582754
 21
815.4770510197982
 31
0.0
  0
LINE
  5
DE
330
17
100
AcDbEntity
  8
A-ROOF
100
AcDbLine
 10
771.5250076293946
 20
815.3139111976924
 30
0.0
 11
427.62503231979736
 21
815.3139111976924
 31
0.0
  0
LINE
  5
DF
330
17
100
AcDbEntity
  8
A-ROOF
100
AcDbLine
 10
261.89996323472883
 20
955.9708667965385
 30
0.0
 11
223.09915528473186
 21
933.5691862331413
 31
0.0
  0
LINE
  5
E0
330
17
100
AcDbEntity
  8
A-ROOF
100
AcDbLine
 10
423.3816395845404
 20
817.7060999605993
 30
0.0
 11
222.90001525878915
 21
933.4542125641831
 31
0.0
  0
LINE
  5
E1
330
17
100
AcDbEntity
  8
A-ROOF
100
AcDbLine
 10
427.52503231979733
 20
815.3139111976924
 30
0.0
 11
417.6249686413863
 21
815.3139111976924
 31
0.0
  0
LINE
  5
E2
330
17
100
AcDbEntity
  8
A-ROOF
100
AcDbLine
 10
222.81350698556787
 20
933.4042673046374
 30
0.0
 11
218.0012276168776
 21
930.625914054419
 31
0.0
  0
LINE
  5
E3
330
17
100
AcDbEntity
  8
A-ROOF
100
AcDbLine
 10
417.2005320844197
 20
815.5012247489174
 30
0.0
 11
217.89998341958358
 21
930.5674610588494
 31
0.0
  0
LINE
  5
E4
330
17
100
AcDbEntity
  8
A-ROOF
100
AcDbLine
 10
417.5249686413863
 20
815.3139111976924
 30
0.0
 11
265.6249769315946
 21
815.3139111976924
 31
0.0
  0
LINE
  5
E5
330
17
100
AcDbEntity
  8
A-ROOF
100
AcDbLine
 10
217.8134767712114
 20
930.5175163941062
 30
0.0
 11
142.02354253924193
 21
886.7601529155875
 31
0.0
  0
LINE
  5
E6
330
17
100
AcDbEntity
  8
A-ROOF
100
AcDbLine
 10
265.3517719227774
 20
815.4139111976924
 30
0.0
 11
141.90002511092064
 21
886.6888400550902
 31
0.0
  0
LINE
  5
E7
330
17
100
AcDbEntity
  8
A-ROOF
100
AcDbLine
 10
265.52497693159455
 20
815.3139111976924
 30
0.0
 11
18.27499819778086
 21
815.3139111976924
 31
0.0
  0
LINE
  5
E8
330
17
100
AcDbEntity
  8
A-ROOF
100
AcDbLine
 10
141.90002511092064
 20
886.6888400550902
 30
0.0
 11
18.448203311806537
 21
815.4139111976924
 31
0.0
  0
LINE
  5
E9
330
17
100
AcDbEntity
  8
A-ROOF
100
AcDbLine
 10
771.5250076293946
 20
815.3139111976924
 30
0.0
 11
771.5250076293946
 21
807.313911294374
 31
0.0
  0
LINE
  5
EA
330
17
100
AcDbEntity
  8
A-ROOF
100
AcDbLine
 10
427.62503231979736
 20
807.313911294374
 30
0.0
 11
771.5250076293946
 21
807.313911294374
 31
0.0
  0
LINE
  5
EB
330
17
100
AcDbEntity
  8
A-ROOF
100
AcDbLine
 10
427.52503231979733
 20
815.3139111976924
 30
0.0
 11
427.52503231979733
 21
807.313911294374
 31
0.0
  0
LINE
  5
EC
330
17
100
AcDbEntity
  8
A-ROOF
100
AcDbLine
 10
417.6249686413863
 20
807.313911294374
 30
0.0
 11
427.52503231979733
 21
807.313911294374
 31
0.0
  0
LINE
  5
ED
330
17
100
AcDbEntity
  8
A-ROOF
100
AcDbLine
 10
417.5249686413863
 20
815.3139111976924
 30
0.0
 11
417.5249686413863
 21
807.313911294374
 31
0.0
  0
LINE
  5
EE
330
17
100
AcDbEntity
  8
A-ROOF
100
AcDbLine
 10
265.6249769315946
 20
807.313911294374
 30
0.0
 11
417.5249686413863
 21
807.313911294374
 31
0.0
  0
LINE
  5
EF
330
17
100
AcDbEntity
  8
A-ROOF
100
AcDbLine
 10
18.27499819778086
 20
815.3139111976924
 30
0.0
 11
18.27499819778086
 21
807.313911294374
 31
0.0
  0
LINE
  5
F0
330
17
100
AcDbEntity
  8
A-ROOF
100
AcDbLine
 10
265.52497693159455
 20
815.3139111976924
 30
0.0
 11
265.52497693159455
 21
807.313911294374
 31
0.0
  0
LINE
  5
F1
330
17
100
AcDbEntity
  8
A-ROOF
100
AcDbLine
 10
18.27499819778086
 20
807.313911294374
 30
0.0
 11
265.52497693159455
 21
807.313911294374
 31
0.0
  0
INSERT
  5
106
330
17
100
AcDbEntity
  8
A-WINDOW
100
AcDbBlockReference
  2
ELEV_window_mulledCasement_2x3grid_elevation_32x72x2_68x72
 10
137.23400000000015
 20
711.3139111976924
 30
0.0
  0
INSERT
  5
122
330
17
100
AcDbEntity
  8
A-WINDOW
100
AcDbBlockReference
  2
ELEV_window_mulledCasement_2x3grid_elevation_30x72x4_132x72
 10
323.9000000000001
 20
711.3139111976924
 30
0.0
  0
INSERT
  5
140
330
17
100
AcDbEntity
  8
A-DOOR
100
AcDbBlockReference
  2
ELEV_extDoor_4-panel_sliding_glass_168x96
 10
586.2760000000001
 20
687.3139111976924
 30
0.0
  0
MTEXT
  5
142
330
17
100
AcDbEntity
  8
G-ANNO-TEXT
100
AcDbMText
 10
394.90000000000003
 20
645.3139111976924
 30
0.0
 40
10.0
 71
5
  1
BACK ELEVATION
  7
ELEVATION_TITLE
  0
LINE
  5
143
330
17
100
AcDbEntity
  8
A-WALL
100
AcDbLine
 10
171.9000000000001
 20
472.6569555988462
 30
0.0
 11
659.9000000000001
 21
472.6569555988462
 31
0.0
  0
LINE
  5
144
330
17
100
AcDbEntity
  8
A-WALL
100
AcDbLine
 10
133.9000000000001
 20
472.6569555988462
 30
0.0
 11
171.9000000000001
 21
472.6569555988462
 31
0.0
  0
LINE
  5
145
330
17
100
AcDbEntity
  8
A-WALL
100
AcDbLine
 10
85.90000000000009
 20
472.6569555988462
 30
0.0
 11
133.9000000000001
 21
472.6569555988462
 31
0.0
  0
LINE
  5
146
330
17
100
AcDbEntity
  8
A-WALL
100
AcDbLine
 10
659.9000000000001
 20
472.6569555988462
 30
0.0
 11
735.9000000000001
 21
472.6569555988462
 31
0.0
  0
LINE
  5
147
330
17
100
AcDbEntity
  8
A-WALL
100
AcDbLine
 10
53.90000000000009
 20
472.6569555988462
 30
0.0
 11
85.90000000000009
 21
472.6569555988462
 31
0.0
  0
LINE
  5
148
330
17
100
AcDbEntity
  8
A-WALL
100
AcDbLine
 10
53.90000000000009
 20
352.6569555988462
 30
0.0
 11
53.90000000000009
 21
472.6569555988462
 31
0.0
  0
LINE
  5
149
330
17
100
AcDbEntity
  8
A-WALL
100
AcDbLine
 10
85.90000000000009
 20
352.6569555988462
 30
0.0
 11
85.90000000000009
 21
472.6569555988462
 31
0.0
  0
LINE
  5
14A
330
17
100
AcDbEntity
  8
A-WALL
100
AcDbLine
 10
133.9000000000001
 20
352.6569555988462
 30
0.0
 11
133.9000000000001
 21
472.6569555988462
 31
0.0
  0
LINE
  5
14B
330
17
100
AcDbEntity
  8
A-WALL
100
AcDbLine
 10
171.9000000000001
 20
352.6569555988462
 30
0.0
 11
171.9000000000001
 21
472.6569555988462
 31
0.0
  0
LINE
  5
14C
330
17
100
AcDbEntity
  8
A-WALL
100
AcDbLine
 10
659.9000000000001
 20
352.6569555988462
 30
0.0
 11
659.9000000000001
 21
472.6569555988462
 31
0.0
  0
LINE
  5
14D
330
17
100
AcDbEntity
  8
A-WALL
100
AcDbLine
 10
735.9000000000001
 20
352.6569555988462
 30
0.0
 11
735.9000000000001
 21
472.6569555988462
 31
0.0
  0
LINE
  5
14E
330
17
100
AcDbEntity
  8
A-GRADE
100
AcDbLine
 10
19.800000000000068
 20
334.6569555988462
 30
0.0
 11
770.0
 21
334.6569555988462
 31
0.0
  0
LINE
  5
14F
330
17
100
AcDbEntity
  8
A-WALL
100
AcDbLine
 10
171.9000000000001
 20
334.6569555988462
 30
0.0
 11
659.9000000000001
 21
334.6569555988462
 31
0.0
  0
LINE
  5
150
330
17
100
AcDbEntity
  8
A-WALL
100
AcDbLine
 10
171.9000000000001
 20
352.6569555988462
 30
0.0
 11
659.9000000000001
 21
352.6569555988462
 31
0.0
  0
LINE
  5
151
330
17
100
AcDbEntity
  8
A-WALL
100
AcDbLine
 10
133.9000000000001
 20
334.6569555988462
 30
0.0
 11
171.9000000000001
 21
334.6569555988462
 31
0.0
  0
LINE
  5
152
330
17
100
AcDbEntity
  8
A-WALL
100
AcDbLine
 10
133.9000000000001
 20
352.6569555988462
 30
0.0
 11
171.9000000000001
 21
352.6569555988462
 31
0.0
  0
LINE
  5
153
330
17
100
AcDbEntity
  8
A-WALL
100
AcDbLine
 10
85.90000000000009
 20
334.6569555988462
 30
0.0
 11
133.9000000000001
 21
334.6569555988462
 31
0.0
  0
LINE
  5
154
330
17
100
AcDbEntity
  8
A-WALL
100
AcDbLine
 10
85.90000000000009
 20
352.6569555988462
 30
0.0
 11
133.9000000000001
 21
352.6569555988462
 31
0.0
  0
LINE
  5
155
330
17
100
AcDbEntity
  8
A-WALL
100
AcDbLine
 10
659.9000000000001
 20
334.6569555988462
 30
0.0
 11
735.9000000000001
 21
334.6569555988462
 31
0.0
  0
LINE
  5
156
330
17
100
AcDbEntity
  8
A-WALL
100
AcDbLine
 10
659.9000000000001
 20
352.6569555988462
 30
0.0
 11
735.9000000000001
 21
352.6569555988462
 31
0.0
  0
LINE
  5
157
330
17
100
AcDbEntity
  8
A-WALL
100
AcDbLine
 10
53.90000000000009
 20
334.6569555988462
 30
0.0
 11
85.90000000000009
 21
334.6569555988462
 31
0.0
  0
LINE
  5
158
330
17
100
AcDbEntity
  8
A-WALL
100
AcDbLine
 10
53.90000000000009
 20
352.6569555988462
 30
0.0
 11
85.90000000000009
 21
352.6569555988462
 31
0.0
  0
LINE
  5
159
330
17
100
AcDbEntity
  8
A-WALL
100
AcDbLine
 10
53.90000000000009
 20
334.6569555988462
 30
0.0
 11
53.90000000000009
 21
352.6569555988462
 31
0.0
  0
LINE
  5
15A
330
17
100
AcDbEntity
  8
A-WALL
100
AcDbLine
 10
85.90000000000009
 20
334.6569555988462
 30
0.0
 11
85.90000000000009
 21
352.6569555988462
 31
0.0
  0
LINE
  5
15B
330
17
100
AcDbEntity
  8
A-WALL
100
AcDbLine
 10
133.9000000000001
 20
334.6569555988462
 30
0.0
 11
133.9000000000001
 21
352.6569555988462
 31
0.0
  0
LINE
  5
15C
330
17
100
AcDbEntity
  8
A-WALL
100
AcDbLine
 10
171.9000000000001
 20
334.6569555988462
 30
0.0
 11
171.9000000000001
 21
352.6569555988462
 31
0.0
  0
LINE
  5
15D
330
17
100
AcDbEntity
  8
A-WALL
100
AcDbLine
 10
659.9000000000001
 20
334.6569555988462
 30
0.0
 11
659.9000000000001
 21
352.6569555988462
 31
0.0
  0
LINE
  5
15E
330
17
100
AcDbEntity
  8
A-WALL
100
AcDbLine
 10
735.9000000000001
 20
334.6569555988462
 30
0.0
 11
735.9000000000001
 21
352.6569555988462
 31
0.0
  0
LINE
  5
15F
330
17
100
AcDbEntity
  8
A-TRIM
100
AcDbLine
 10
171.9000000000001
 20
464.6569555988462
 30
0.0
 11
659.9000000000001
 21
464.6569555988462
 31
0.0
  0
LINE
  5
160
330
17
100
AcDbEntity
  8
A-TRIM
100
AcDbLine
 10
133.9000000000001
 20
464.6569555988462
 30
0.0
 11
171.9000000000001
 21
464.6569555988462
 31
0.0
  0
LINE
  5
161
330
17
100
AcDbEntity
  8
A-TRIM
100
AcDbLine
 10
85.90000000000009
 20
464.6569555988462
 30
0.0
 11
133.9000000000001
 21
464.6569555988462
 31
0.0
  0
LINE
  5
162
330
17
100
AcDbEntity
  8
A-TRIM
100
AcDbLine
 10
659.9000000000001
 20
464.6569555988462
 30
0.0
 11
735.9000000000001
 21
464.6569555988462
 31
0.0
  0
LINE
  5
163
330
17
100
AcDbEntity
  8
A-TRIM
100
AcDbLine
 10
53.90000000000009
 20
464.6569555988462
 30
0.0
 11
85.90000000000009
 21
464.6569555988462
 31
0.0
  0
LINE
  5
164
330
17
100
AcDbEntity
  8
A-ROOF
100
AcDbLine
 10
753.042801738512
 20
480.93533729592536
 30
0.0
 11
571.9000271534358
 21
585.518196286179
 31
0.0
  0
LINE
  5
165
330
17
100
AcDbEntity
  8
A-ROOF
100
AcDbLine
 10
753.5249728465644
 20
480.6569555988462
 30
0.0
 11
677.6250145379015
 21
480.6569555988462
 31
0.0
  0
LINE
  5
166
330
17
100
AcDbEntity
  8
A-ROOF
100
AcDbLine
 10
571.9000271534358
 20
585.518196286179
 30
0.0
 11
460.1973232947389
 21
585.518196286179
 31
0.0
  0
LINE
  5
167
330
17
100
AcDbEntity
  8
A-ROOF
100
AcDbLine
 10
397.8999704436055
 20
621.3139111976924
 30
0.0
 11
539.7613159876959
 21
539.4102308795277
 31
0.0
  0
LINE
  5
168
330
17
100
AcDbEntity
  8
A-ROOF
100
AcDbLine
 10
540.1549623898946
 20
539.3301768941203
 30
0.0
 11
575.8999775323343
 21
539.3301768941203
 31
0.0
  0
LINE
  5
169
330
17
100
AcDbEntity
  8
A-ROOF
100
AcDbLine
 10
575.8999775323343
 20
539.3301768941203
 30
0.0
 11
676.8052021583803
 21
481.0725393199366
 31
0.0
  0
LINE
  5
16A
330
17
100
AcDbEntity
  8
A-ROOF
100
AcDbLine
 10
397.8999704436055
 20
621.3139111976924
 30
0.0
 11
154.51289588044006
 21
480.7943017439883
 31
0.0
  0
LINE
  5
16B
330
17
100
AcDbEntity
  8
A-ROOF
100
AcDbLine
 10
677.5250145379016
 20
480.6569555988462
 30
0.0
 11
154.27500540665767
 21
480.6569555988462
 31
0.0
  0
LINE
  5
16C
330
17
100
AcDbEntity
  8
A-ROOF
100
AcDbLine
 10
154.17500540665765
 20
480.6569555988462
 30
0.0
 11
116.27498870609327
 21
480.6569555988462
 31
0.0
  0
LINE
  5
16D
330
17
100
AcDbEntity
  8
A-ROOF
100
AcDbLine
 10
116.9622373776026
 20
481.05373877976893
 30
0.0
 11
320.90000576710145
 21
598.7972569653368
 31
0.0
  0
LINE
  5
16E
330
17
100
AcDbEntity
  8
A-ROOF
100
AcDbLine
 10
358.6999858763038
 20
598.7972569653368
 30
0.0
 11
320.9999045840923
 21
598.7972569653368
 31
0.0
  0
LINE
  5
16F
330
17
100
AcDbEntity
  8
A-ROOF
100
AcDbLine
 10
116.17498870609325
 20
480.6569555988462
 30
0.0
 11
68.27498341958369
 21
480.6569555988462
 31
0.0
  0
LINE
  5
170
330
17
100
AcDbEntity
  8
A-ROOF
100
AcDbLine
 10
68.44818848395028
 20
480.75695559884616
 30
0.0
 11
267.8999686413864
 21
595.9105054600033
 31
0.0
  0
LINE
  5
171
330
17
100
AcDbEntity
  8
A-ROOF
100
AcDbLine
 10
315.7000051720901
 20
595.9105054600033
 30
0.0
 11
267.9998509108308
 21
595.9105054600033
 31
0.0
  0
LINE
  5
172
330
17
100
AcDbEntity
  8
A-ROOF
100
AcDbLine
 10
68.17498341958367
 20
480.6569555988462
 30
0.0
 11
36.27500492606589
 21
480.6569555988462
 31
0.0
  0
LINE
  5
173
330
17
100
AcDbEntity
  8
A-ROOF
100
AcDbLine
 10
36.44821004009145
 20
480.75695559884616
 30
0.0
 11
159.90003183920567
 21
552.031884456244
 31
0.0
  0
LINE
  5
174
330
17
100
AcDbEntity
  8
A-ROOF
100
AcDbLine
 10
191.69997490284538
 20
552.031884456244
 30
0.0
 11
159.99992101788155
 21
552.031884456244
 31
0.0
  0
LINE
  5
175
330
17
100
AcDbEntity
  8
A-ROOF
100
AcDbLine
 10
753.5249728465644
 20
480.6569555988462
 30
0.0
 11
753.5249728465644
 21
472.65695569552776
 31
0.0
  0
LINE
  5
176
330
17
100
AcDbEntity
  8
A-ROOF
100
AcDbLine
 10
677.6250145379015
 20
472.65695569552776
 30
0.0
 11
753.5249728465644
 21
472.65695569552776
 31
0.0
  0
LINE
  5
177
330
17
100
AcDbEntity
  8
A-ROOF
100
AcDbLine
 10
154.27500540665767
 20
480.6569555988462
 30
0.0
 11
154.27500540665767
 21
472.65695569552776
 31
0.0
  0
LINE
  5
178
330
17
100
AcDbEntity
  8
A-ROOF
100
AcDbLine
 10
677.5250145379016
 20
480.6569555988462
 30
0.0
 11
677.5250145379016
 21
472.65695569552776
 31
0.0
  0
LINE
  5
179
330
17
100
AcDbEntity
  8
A-ROOF
100
AcDbLine
 10
154.27500540665767
 20
472.65695569552776
 30
0.0
 11
677.5250145379016
 21
472.65695569552776
 31
0.0
  0
LINE
  5
17A
330
17
100
AcDbEntity
  8
A-ROOF
100
AcDbLine
 10
116.27498870609327
 20
480.6569555988462
 30
0.0
 11
116.27498870609327
 21
472.65695569552776
 31
0.0
  0
LINE
  5
17B
330
17
100
AcDbEntity
  8
A-ROOF
100
AcDbLine
 10
116.27498870609327
 20
472.65695569552776
 30
0.0
 11
154.17500540665765
 21
472.65695569552776
 31
0.0
  0
LINE
  5
17C
330
17
100
AcDbEntity
  8
A-ROOF
100
AcDbLine
 10
68.27498341958369
 20
480.6569555988462
 30
0.0
 11
68.27498341958369
 21
472.65695569552776
 31
0.0
  0
LINE
  5
17D
330
17
100
AcDbEntity
  8
A-ROOF
100
AcDbLine
 10
68.27498341958369
 20
472.65695569552776
 30
0.0
 11
116.17498870609325
 21
472.65695569552776
 31
0.0
  0
LINE
  5
17E
330
17
100
AcDbEntity
  8
A-ROOF
100
AcDbLine
 10
36.27500492606589
 20
480.6569555988462
 30
0.0
 11
36.27500492606589
 21
472.65695569552776
 31
0.0
  0
LINE
  5
17F
330
17
100
AcDbEntity
  8
A-ROOF
100
AcDbLine
 10
36.27500492606589
 20
472.65695569552776
 30
0.0
 11
68.17498341958367
 21
472.65695569552776
 31
0.0
  0
INSERT
  5
18B
330
17
100
AcDbEntity
  8
A-WINDOW
100
AcDbBlockReference
  2
ELEV_window_Casement_2x3grid_elevation_32x72
 10
366.07400000000007
 20
376.6569555988462
 30
0.0
  0
INSERT
  5
18D
330
17
100
AcDbEntity
  8
A-WINDOW
100
AcDbBlockReference
  2
ELEV_window_Casement_2x3grid_elevation_32x72
 10
209.7260000000001
 20
376.6569555988462
 30
0.0
  0
INSERT
  5
18F
330
17
100
AcDbEntity
  8
A-WINDOW
100
AcDbBlockReference
  2
ELEV_window_Casement_2x3grid_elevation_32x72
 10
434.9000000000001
 20
376.6569555988462
 30
0.0
  0
MTEXT
  5
191
330
17
100
AcDbEntity
  8
G-ANNO-TEXT
100
AcDbMText
 10
394.90000000000003
 20
310.6569555988462
 30
0.0
 40
10.0
 71
5
  1
LEFT ELEVATION
  7
ELEVATION_TITLE
  0
LINE
  5
192
330
17
100
AcDbEntity
  8
A-WALL
100
AcDbLine
 10
53.90000000000009
 20
138.0
 30
0.0
 11
735.9000000000001
 21
138.0
 31
0.0
  0
LINE
  5
193
330
17
100
AcDbEntity
  8
A-WALL
100
AcDbLine
 10
53.90000000000009
 20
18.0
 30
0.0
 11
53.90000000000009
 21
138.0
 31
0.0
  0
LINE
  5
194
330
17
100
AcDbEntity
  8
A-WALL
100
AcDbLine
 10
735.9000000000001
 20
18.0
 30
0.0
 11
735.9000000000001
 21
138.0
 31
0.0
  0
LINE
  5
195
330
17
100
AcDbEntity
  8
A-GRADE
100
AcDbLine
 10
19.800000000000182
 20
0.0
 30
0.0
 11
770.0000000000001
 21
0.0
 31
0.0
  0
LINE
  5
196
330
17
100
AcDbEntity
  8
A-WALL
100
AcDbLine
 10
53.90000000000009
 20
0.0
 30
0.0
 11
735.9000000000001
 21
0.0
 31
0.0
  0
LINE
  5
197
330
17
100
AcDbEntity
  8
A-WALL
100
AcDbLine
 10
53.90000000000009
 20
18.0
 30
0.0
 11
735.9000000000001
 21
18.0
 31
0.0
  0
LINE
  5
198
330
17
100
AcDbEntity
  8
A-WALL
100
AcDbLine
 10
53.90000000000009
 20
0.0
 30
0.0
 11
53.90000000000009
 21
18.0
 31
0.0
  0
LINE
  5
199
330
17
100
AcDbEntity
  8
A-WALL
100
AcDbLine
 10
735.9000000000001
 20
0.0
 30
0.0
 11
735.9000000000001
 21
18.0
 31
0.0
  0
LINE
  5
19A
330
17
100
AcDbEntity
  8
A-TRIM
100
AcDbLine
 10
53.90000000000009
 20
130.0
 30
0.0
 11
735.9000000000001
 21
130.0
 31
0.0
  0
LINE
  5
19B
330
17
100
AcDbEntity
  8
A-ROOF
100
AcDbLine
 10
36.44823218563124
 20
146.1
 30
0.0
 11
217.89997284656442
 21
250.86124068733275
 31
0.0
  0
LINE
  5
19C
330
17
100
AcDbEntity
  8
A-ROOF
100
AcDbLine
 10
218.42046358079574
 20
250.86124068733275
 30
0.0
 11
329.8001215651634
 21
250.86124068733275
 31
0.0
  0
LINE
  5
19D
330
17
100
AcDbEntity
  8
A-ROOF
100
AcDbLine
 10
330.126218859074
 20
250.9918422630464
 30
0.0
 11
391.90002955639466
 21
286.6569555988462
 31
0.0
  0
LINE
  5
19E
330
17
100
AcDbEntity
  8
A-ROOF
100
AcDbLine
 10
391.90002955639466
 20
286.6569555988462
 30
0.0
 11
430.75768523083957
 21
264.2224539517879
 31
0.0
  0
LINE
  5
19F
330
17
100
AcDbEntity
  8
A-ROOF
100
AcDbLine
 10
432.3928957364884
 20
264.14030136649063
 30
0.0
 11
468.89999423289873
 21
264.14030136649063
 31
0.0
  0
LINE
  5
1A0
330
17
100
AcDbEntity
  8
A-ROOF
100
AcDbLine
 10
468.89999423289873
 20
264.14030136649063
 30
0.0
 11
473.7035883017495
 21
261.36696254481825
 31
0.0
  0
LINE
  5
1A1
330
17
100
AcDbEntity
  8
A-ROOF
100
AcDbLine
 10
474.19979506143954
 20
261.253549861157
 30
0.0
 11
521.9000313586138
 21
261.253549861157
 31
0.0
  0
LINE
  5
1A2
330
17
100
AcDbEntity
  8
A-ROOF
100
AcDbLine
 10
521.9000313586138
 20
261.253549861157
 30
0.0
 11
597.4253557468066
 21
217.64895903287834
 31
0.0
  0
LINE
  5
1A3
330
17
100
AcDbEntity
  8
A-ROOF
100
AcDbLine
 10
598.13986650684
 20
217.37492885739783
 30
0.0
 11
629.8999681607945
 21
217.37492885739783
 31
0.0
  0
LINE
  5
1A4
330
17
100
AcDbEntity
  8
A-ROOF
100
AcDbLine
 10
629.8999681607945
 20
217.37492885739783
 30
0.0
 11
753.2579494567667
 21
146.15417882934344
 31
0.0
  0
LINE
  5
1A5
330
17
100
AcDbEntity
  8
A-ROOF
100
AcDbLine
 10
36.27502715343576
 20
146.0
 30
0.0
 11
753.5249950739343
 21
146.0
 31
0.0
  0
LINE
  5
1A6
330
17
100
AcDbEntity
  8
A-ROOF
100
AcDbLine
 10
36.27502715343576
 20
146.0
 30
0.0
 11
36.27502715343576
 21
138.00000009668156
 31
0.0
  0
LINE
  5
1A7
330
17
100
AcDbEntity
  8
A-ROOF
100
AcDbLine
 10
753.5249950739343
 20
146.0
 30
0.0
 11
753.5249950739343
 21
138.00000009668156
 31
0.0
  0
LINE
  5
1A8
330
17
100
AcDbEntity
  8
A-ROOF
100
AcDbLine
 10
36.27502715343576
 20
138.00000009668156
 30
0.0
 11
753.5249950739343
 21
138.00000009668156
 31
0.0
  0
INSERT
  5
1B2
330
17
100
AcDbEntity
  8
A-WINDOW
100
AcDbBlockReference
  2
ELEV_window_mulledCasement_2x3grid_elevation_24x72x2_52x72
 10
704.9000000000001
 20
42.0
 30
0.0
  0
INSERT
  5
1BF
330
17
100
AcDbEntity
  8
A-WINDOW
100
AcDbBlockReference
  2
ELEV_window_Casement_2x3grid_elevation_36x72
 10
638.2760000000001
 20
42.0
 30
0.0
  0
INSERT
  5
1CC
330
17
100
AcDbEntity
  8
A-WINDOW
100
AcDbBlockReference
  2
ELEV_window_Casement_2x3grid_elevation_30x72
 10
578.4760000000001
 20
42.0
 30
0.0
  0
INSERT
  5
1D9
330
17
100
AcDbEntity
  8
A-WINDOW
100
AcDbBlockReference
  2
ELEV_window_Casement_2x3grid_elevation_28x72
 10
472.32400000000007
 20
42.0
 30
0.0
  0
MTEXT
  5
1DB
330
17
100
AcDbEntity
  8
G-ANNO-TEXT
100
AcDbMText
 10
394.90000000000003
 20
-24.0
 30
0.0
 40
10.0
 71
5
  1
RIGHT ELEVATION
  7
ELEVATION_TITLE
  0
ENDSEC
  0
SECTION
  2
OBJECTS
  0
DICTIONARY
  5
A
330
0
100
AcDbDictionary
281
1
  3
ACAD_COLOR
350
B
  3
ACAD_GROUP
350
C
  3
ACAD_LAYOUT
350
D
  3
ACAD_MATERIAL
350
E
  3
ACAD_MLEADERSTYLE
350
F
  3
ACAD_MLINESTYLE
350
10
  3
ACAD_PLOTSETTINGS
350
11
  3
ACAD_PLOTSTYLENAME
350
12
  3
ACAD_SCALELIST
350
14
  3
ACAD_TABLESTYLE
350
15
  3
ACAD_VISUALSTYLE
350
16
  3
EZDXF_META
350
2D
  0
DICTIONARY
  5
B
330
A
100
AcDbDictionary
281
1
  0
DICTIONARY
  5
C
330
A
100
AcDbDictionary
281
1
  0
DICTIONARY
  5
D
330
A
100
AcDbDictionary
281
1
  3
Model
350
1A
  3
Layout1
350
1E
  0
DICTIONARY
  5
E
330
A
100
AcDbDictionary
281
1
  3
ByBlock
350
1F
  3
ByLayer
350
20
  3
Global
350
21
  0
DICTIONARY
  5
F
330
A
100
AcDbDictionary
281
1
  3
Standard
350
2C
  0
DICTIONARY
  5
10
330
A
100
AcDbDictionary
281
1
  3
Standard
350
22
  0
DICTIONARY
  5
11
330
A
100
AcDbDictionary
281
1
  0
ACDBDICTIONARYWDFLT
  5
12
330
A
100
AcDbDictionary
281
1
  3
Normal
350
13
100
AcDbDictionaryWithDefault
340
13
  0
ACDBPLACEHOLDER
  5
13
330
12
  0
DICTIONARY
  5
14
330
A
100
AcDbDictionary
281
1
  0
DICTIONARY
  5
15
330
A
100
AcDbDictionary
281
1
  0
DICTIONARY
  5
16
330
A
100
AcDbDictionary
281
1
  0
LAYOUT
  5
1A
330
D
100
AcDbPlotSettings
  1

  4
A3
  6

 40
7.5
 41
20.0
 42
7.5
 43
20.0
 44
420.0
 45
297.0
 46
0.0
 47
0.0
 48
0.0
 49
0.0
140
0.0
141
0.0
142
1.0
143
1.0
 70
1024
 72
1
 73
0
 74
5
  7

 75
16
 76
0
 77
2
 78
300
147
1.0
148
0.0
149
0.0
100
AcDbLayout
  1
Model
 70
1
 71
0
 10
0.0
 20
0.0
 11
420.0
 21
297.0
 12
0.0
 22
0.0
 32
0.0
 14
1e+20
 24
1e+20
 34
1e+20
 15
-1e+20
 25
-1e+20
 35
-1e+20
146
0.0
 13
0.0
 23
0.0
 33
0.0
 16
1.0
 26
0.0
 36
0.0
 17
0.0
 27
1.0
 37
0.0
 76
1
330
17
  0
LAYOUT
  5
1E
330
D
100
AcDbPlotSettings
  1

  4
A3
  6

 40
7.5
 41
20.0
 42
7.5
 43
20.0
 44
420.0
 45
297.0
 46
0.0
 47
0.0
 48
0.0
 49
0.0
140
0.0
141
0.0
142
1.0
143
1.0
 70
0
 72
1
 73
0
 74
5
  7

 75
16
 76
0
 77
2
 78
300
147
1.0
148
0.0
149
0.0
100
AcDbLayout
  1
Layout1
 70
1
 71
1
 10
0.0
 20
0.0
 11
420.0
 21
297.0
 12
0.0
 22
0.0
 32
0.0
 14
1e+20
 24
1e+20
 34
1e+20
 15
-1e+20
 25
-1e+20
 35
-1e+20
146
0.0
 13
0.0
 23
0.0
 33
0.0
 16
1.0
 26
0.0
 36
0.0
 17
0.0
 27
1.0
 37
0.0
 76
1
330
1B
  0
MATERIAL
  5
1F
102
{ACAD_REACTORS
330
E
102
}
330
E
100
AcDbMaterial
  1
ByBlock
  2

 70
0
 40
1.0
 71
1
 41
1.0
 91
-1023410177
 42
1.0
 72
1
  3

 73
1
 74
1
 75
1
 44
0.5
 73
0
 45
1.0
 46
1.0
 77
1
  4

 78
1
 79
1
170
1
 48
1.0
171
1
  6

172
1
173
1
174
1
140
1.0
141
1.0
175
1
  7

176
1
177
1
178
1
143
1.0
179
1
  8

270
1
271
1
272
1
145
1.0
146
1.0
273
1
  9

274
1
275
1
276
1
 42
1.0
 72
1
  3

 73
1
 74
1
 75
1
 94
63
  0
MATERIAL
  5
20
102
{ACAD_REACTORS
330
E
102
}
330
E
100
AcDbMaterial
  1
ByLayer
  2

 70
0
 40
1.0
 71
1
 41
1.0
 91
-1023410177
 42
1.0
 72
1
  3

 73
1
 74
1
 75
1
 44
0.5
 73
0
 45
1.0
 46
1.0
 77
1
  4

 78
1
 79
1
170
1
 48
1.0
171
1
  6

172
1
173
1
174
1
140
1.0
141
1.0
175
1
  7

176
1
177
1
178
1
143
1.0
179
1
  8

270
1
271
1
272
1
145
1.0
146
1.0
273
1
  9

274
1
275
1
276
1
 42
1.0
 72
1
  3

 73
1
 74
1
 75
1
 94
63
  0
MATERIAL
  5
21
102
{ACAD_REACTORS
330
E
102
}
330
E
100
AcDbMaterial
  1
Global
  2

 70
0
 40
1.0
 71
1
 41
1.0
 91
-1023410177
 42
1.0
 72
1
  3

 73
1
 74
1
 75
1
 44
0.5
 73
0
 45
1.0
 46
1.0
 77
1
  4

 78
1
 79
1
170
1
 48
1.0
171
1
  6

172
1
173
1
174
1
140
1.0
141
1.0
175
1
  7

176
1
177
1
178
1
143
1.0
179
1
  8

270
1
271
1
272
1
145
1.0
146
1.0
273
1
  9

274
1
275
1
276
1
 42
1.0
 72
1
  3

 73
1
 74
1
 75
1
 94
63
  0
MLINESTYLE
  5
22
102
{ACAD_REACTORS
330
10
102
}
330
10
100
AcDbMlineStyle
  2
Standard
 70
0
  3

 62
256
 51
90.0
 52
90.0
 71
2
 49
0.5
 62
256
  6
BYLAYER
 49
-0.5
 62
256
  6
BYLAYER
  0
MLEADERSTYLE
  5
2C
102
{ACAD_REACTORS
330
F
102
}
330
F
100
AcDbMLeaderStyle
179
2
170
2
171
1
172
0
 90
2
 40
0.0
 41
0.0
173
1
 91
-1056964608
 92
-2
290
1
 42
2.0
291
1
 43
8.0
  3
Standard
 44
4.0
300

342
29
174
1
175
1
176
0
178
1
 93
-1056964608
 45
4.0
292
0
297
0
 46
4.0
 94
-1056964608
 47
1.0
 49
1.0
140
1.0
294
1
141
0.0
177
0
142
1.0
295
0
296
0
143
3.75
271
0
272
9
273
9
  0
DICTIONARY
  5
2D
330
A
100
AcDbDictionary
280
1
281
1
  3
CREATED_BY_EZDXF
350
2E
  3
WRITTEN_BY_EZDXF
350
1DE
  0
DICTIONARYVAR
  5
2E
330
2D
100
DictionaryVariables
280
0
  1
1.4.4 @ 2026-07-12T03:23:00.668629+00:00
  0
DICTIONARYVAR
  5
1DE
330
2D
100
DictionaryVariables
280
0
  1
1.4.4 @ 2026-07-12T03:23:00.705182+00:00
  0
ENDSEC
  0
EOF
